<?xml version="1.0" encoding="utf-8" standalone="no"?>
<!DOCTYPE svg PUBLIC "-//W3C//DTD SVG 1.1//EN"
  "http://www.w3.org/Graphics/SVG/1.1/DTD/svg11.dtd">
<svg xmlns:xlink="http://www.w3.org/1999/xlink" width="1008pt" height="1440pt" viewBox="0 0 1008 1440" xmlns="http://www.w3.org/2000/svg" version="1.1">
 <metadata>
  <rdf:RDF xmlns:dc="http://purl.org/dc/elements/1.1/" xmlns:cc="http://creativecommons.org/ns#" xmlns:rdf="http://www.w3.org/1999/02/22-rdf-syntax-ns#">
   <cc:Work>
    <dc:type rdf:resource="http://purl.org/dc/dcmitype/StillImage"/>
    <dc:date>2024-09-03T00:46:54.226131</dc:date>
    <dc:format>image/svg+xml</dc:format>
    <dc:creator>
     <cc:Agent>
      <dc:title>Matplotlib v3.7.5, https://matplotlib.org/</dc:title>
     </cc:Agent>
    </dc:creator>
   </cc:Work>
  </rdf:RDF>
 </metadata>
 <defs>
  <style type="text/css">*{stroke-linejoin: round; stroke-linecap: butt}</style>
 </defs>
 <g id="figure_1">
  <g id="patch_1">
   <path d="M 0 1440 
L 1008 1440 
L 1008 0 
L 0 0 
z
" style="fill: #ffffff"/>
  </g>
  <g id="axes_1">
   <g id="patch_2">
    <path d="M 126 1260 
L 907.2 1260 
L 907.2 172.8 
L 126 172.8 
z
" style="fill: #f9f9f9"/>
   </g>
   <g id="matplotlib.axis_1">
    <g id="xtick_1">
     <g id="line2d_1">
      <path d="M 233.82486 1260 
L 233.82486 172.8 
" clip-path="url(#pa4b176d910)" style="fill: none; stroke: #d9d9d9; stroke-opacity: 0.8; stroke-width: 1.5; stroke-linecap: round"/>
     </g>
     <g id="text_1">
      <!-- −1 -->
      <g style="fill: #262626" transform="translate(224.418571 1284.310391) scale(0.165 -0.165)">
       <defs>
        <path id="ArialMT-2212" d="M 3381 1997 
L 356 1997 
L 356 2522 
L 3381 2522 
L 3381 1997 
z
" transform="scale(0.015625)"/>
        <path id="ArialMT-31" d="M 2384 0 
L 1822 0 
L 1822 3584 
Q 1619 3391 1289 3197 
Q 959 3003 697 2906 
L 697 3450 
Q 1169 3672 1522 3987 
Q 1875 4303 2022 4600 
L 2384 4600 
L 2384 0 
z
" transform="scale(0.015625)"/>
       </defs>
       <use xlink:href="#ArialMT-2212"/>
       <use xlink:href="#ArialMT-31" x="58.398438"/>
      </g>
     </g>
    </g>
    <g id="xtick_2">
     <g id="line2d_2">
      <path d="M 356.966097 1260 
L 356.966097 172.8 
" clip-path="url(#pa4b176d910)" style="fill: none; stroke: #d9d9d9; stroke-opacity: 0.8; stroke-width: 1.5; stroke-linecap: round"/>
     </g>
     <g id="text_2">
      <!-- 0 -->
      <g style="fill: #262626" transform="translate(352.378323 1284.310391) scale(0.165 -0.165)">
       <defs>
        <path id="ArialMT-30" d="M 266 2259 
Q 266 3072 433 3567 
Q 600 4063 929 4331 
Q 1259 4600 1759 4600 
Q 2128 4600 2406 4451 
Q 2684 4303 2865 4023 
Q 3047 3744 3150 3342 
Q 3253 2941 3253 2259 
Q 3253 1453 3087 958 
Q 2922 463 2592 192 
Q 2263 -78 1759 -78 
Q 1097 -78 719 397 
Q 266 969 266 2259 
z
M 844 2259 
Q 844 1131 1108 757 
Q 1372 384 1759 384 
Q 2147 384 2411 759 
Q 2675 1134 2675 2259 
Q 2675 3391 2411 3762 
Q 2147 4134 1753 4134 
Q 1366 4134 1134 3806 
Q 844 3388 844 2259 
z
" transform="scale(0.015625)"/>
       </defs>
       <use xlink:href="#ArialMT-30"/>
      </g>
     </g>
    </g>
    <g id="xtick_3">
     <g id="line2d_3">
      <path d="M 480.107333 1260 
L 480.107333 172.8 
" clip-path="url(#pa4b176d910)" style="fill: none; stroke: #d9d9d9; stroke-opacity: 0.8; stroke-width: 1.5; stroke-linecap: round"/>
     </g>
     <g id="text_3">
      <!-- 1 -->
      <g style="fill: #262626" transform="translate(475.51956 1284.310391) scale(0.165 -0.165)">
       <use xlink:href="#ArialMT-31"/>
      </g>
     </g>
    </g>
    <g id="xtick_4">
     <g id="line2d_4">
      <path d="M 603.24857 1260 
L 603.24857 172.8 
" clip-path="url(#pa4b176d910)" style="fill: none; stroke: #d9d9d9; stroke-opacity: 0.8; stroke-width: 1.5; stroke-linecap: round"/>
     </g>
     <g id="text_4">
      <!-- 2 -->
      <g style="fill: #262626" transform="translate(598.660796 1284.310391) scale(0.165 -0.165)">
       <defs>
        <path id="ArialMT-32" d="M 3222 541 
L 3222 0 
L 194 0 
Q 188 203 259 391 
Q 375 700 629 1000 
Q 884 1300 1366 1694 
Q 2113 2306 2375 2664 
Q 2638 3022 2638 3341 
Q 2638 3675 2398 3904 
Q 2159 4134 1775 4134 
Q 1369 4134 1125 3890 
Q 881 3647 878 3216 
L 300 3275 
Q 359 3922 746 4261 
Q 1134 4600 1788 4600 
Q 2447 4600 2831 4234 
Q 3216 3869 3216 3328 
Q 3216 3053 3103 2787 
Q 2991 2522 2730 2228 
Q 2469 1934 1863 1422 
Q 1356 997 1212 845 
Q 1069 694 975 541 
L 3222 541 
z
" transform="scale(0.015625)"/>
       </defs>
       <use xlink:href="#ArialMT-32"/>
      </g>
     </g>
    </g>
    <g id="xtick_5">
     <g id="line2d_5">
      <path d="M 726.389806 1260 
L 726.389806 172.8 
" clip-path="url(#pa4b176d910)" style="fill: none; stroke: #d9d9d9; stroke-opacity: 0.8; stroke-width: 1.5; stroke-linecap: round"/>
     </g>
     <g id="text_5">
      <!-- 3 -->
      <g style="fill: #262626" transform="translate(721.802033 1284.310391) scale(0.165 -0.165)">
       <defs>
        <path id="ArialMT-33" d="M 269 1209 
L 831 1284 
Q 928 806 1161 595 
Q 1394 384 1728 384 
Q 2125 384 2398 659 
Q 2672 934 2672 1341 
Q 2672 1728 2419 1979 
Q 2166 2231 1775 2231 
Q 1616 2231 1378 2169 
L 1441 2663 
Q 1497 2656 1531 2656 
Q 1891 2656 2178 2843 
Q 2466 3031 2466 3422 
Q 2466 3731 2256 3934 
Q 2047 4138 1716 4138 
Q 1388 4138 1169 3931 
Q 950 3725 888 3313 
L 325 3413 
Q 428 3978 793 4289 
Q 1159 4600 1703 4600 
Q 2078 4600 2393 4439 
Q 2709 4278 2876 4000 
Q 3044 3722 3044 3409 
Q 3044 3113 2884 2869 
Q 2725 2625 2413 2481 
Q 2819 2388 3044 2092 
Q 3269 1797 3269 1353 
Q 3269 753 2831 336 
Q 2394 -81 1725 -81 
Q 1122 -81 723 278 
Q 325 638 269 1209 
z
" transform="scale(0.015625)"/>
       </defs>
       <use xlink:href="#ArialMT-33"/>
      </g>
     </g>
    </g>
    <g id="xtick_6">
     <g id="line2d_6">
      <path d="M 849.531043 1260 
L 849.531043 172.8 
" clip-path="url(#pa4b176d910)" style="fill: none; stroke: #d9d9d9; stroke-opacity: 0.8; stroke-width: 1.5; stroke-linecap: round"/>
     </g>
     <g id="text_6">
      <!-- 4 -->
      <g style="fill: #262626" transform="translate(844.943269 1284.310391) scale(0.165 -0.165)">
       <defs>
        <path id="ArialMT-34" d="M 2069 0 
L 2069 1097 
L 81 1097 
L 81 1613 
L 2172 4581 
L 2631 4581 
L 2631 1613 
L 3250 1613 
L 3250 1097 
L 2631 1097 
L 2631 0 
L 2069 0 
z
M 2069 1613 
L 2069 3678 
L 634 1613 
L 2069 1613 
z
" transform="scale(0.015625)"/>
       </defs>
       <use xlink:href="#ArialMT-34"/>
      </g>
     </g>
    </g>
    <g id="text_7">
     <!-- Współczynnik utraty wartości -->
     <g style="fill: #262626" transform="translate(401.072344 1304.544141) scale(0.18 -0.18)">
      <defs>
       <path id="ArialMT-57" d="M 1294 0 
L 78 4581 
L 700 4581 
L 1397 1578 
Q 1509 1106 1591 641 
Q 1766 1375 1797 1488 
L 2669 4581 
L 3400 4581 
L 4056 2263 
Q 4303 1400 4413 641 
Q 4500 1075 4641 1638 
L 5359 4581 
L 5969 4581 
L 4713 0 
L 4128 0 
L 3163 3491 
Q 3041 3928 3019 4028 
Q 2947 3713 2884 3491 
L 1913 0 
L 1294 0 
z
" transform="scale(0.015625)"/>
       <path id="ArialMT-73" d="M 197 991 
L 753 1078 
Q 800 744 1014 566 
Q 1228 388 1613 388 
Q 2000 388 2187 545 
Q 2375 703 2375 916 
Q 2375 1106 2209 1216 
Q 2094 1291 1634 1406 
Q 1016 1563 777 1677 
Q 538 1791 414 1992 
Q 291 2194 291 2438 
Q 291 2659 392 2848 
Q 494 3038 669 3163 
Q 800 3259 1026 3326 
Q 1253 3394 1513 3394 
Q 1903 3394 2198 3281 
Q 2494 3169 2634 2976 
Q 2775 2784 2828 2463 
L 2278 2388 
Q 2241 2644 2061 2787 
Q 1881 2931 1553 2931 
Q 1166 2931 1000 2803 
Q 834 2675 834 2503 
Q 834 2394 903 2306 
Q 972 2216 1119 2156 
Q 1203 2125 1616 2013 
Q 2213 1853 2448 1751 
Q 2684 1650 2818 1456 
Q 2953 1263 2953 975 
Q 2953 694 2789 445 
Q 2625 197 2315 61 
Q 2006 -75 1616 -75 
Q 969 -75 630 194 
Q 291 463 197 991 
z
" transform="scale(0.015625)"/>
       <path id="ArialMT-70" d="M 422 -1272 
L 422 3319 
L 934 3319 
L 934 2888 
Q 1116 3141 1344 3267 
Q 1572 3394 1897 3394 
Q 2322 3394 2647 3175 
Q 2972 2956 3137 2557 
Q 3303 2159 3303 1684 
Q 3303 1175 3120 767 
Q 2938 359 2589 142 
Q 2241 -75 1856 -75 
Q 1575 -75 1351 44 
Q 1128 163 984 344 
L 984 -1272 
L 422 -1272 
z
M 931 1641 
Q 931 1000 1190 694 
Q 1450 388 1819 388 
Q 2194 388 2461 705 
Q 2728 1022 2728 1688 
Q 2728 2322 2467 2637 
Q 2206 2953 1844 2953 
Q 1484 2953 1207 2617 
Q 931 2281 931 1641 
z
" transform="scale(0.015625)"/>
       <path id="ArialMT-f3" d="M 213 1659 
Q 213 2581 725 3025 
Q 1153 3394 1769 3394 
Q 2453 3394 2887 2945 
Q 3322 2497 3322 1706 
Q 3322 1066 3130 698 
Q 2938 331 2570 128 
Q 2203 -75 1769 -75 
Q 1072 -75 642 372 
Q 213 819 213 1659 
z
M 791 1659 
Q 791 1022 1069 705 
Q 1347 388 1769 388 
Q 2188 388 2466 706 
Q 2744 1025 2744 1678 
Q 2744 2294 2464 2611 
Q 2184 2928 1769 2928 
Q 1347 2928 1069 2612 
Q 791 2297 791 1659 
z
M 1454 3731 
L 1869 4606 
L 2607 4606 
L 1919 3731 
L 1454 3731 
z
" transform="scale(0.015625)"/>
       <path id="ArialMT-142" d="M 416 1794 
L 9 1450 
L 9 1944 
L 416 2288 
L 416 4581 
L 975 4581 
L 975 2763 
L 1397 3122 
L 1397 2631 
L 975 2272 
L 975 0 
L 416 0 
L 416 1794 
z
" transform="scale(0.015625)"/>
       <path id="ArialMT-63" d="M 2588 1216 
L 3141 1144 
Q 3050 572 2676 248 
Q 2303 -75 1759 -75 
Q 1078 -75 664 370 
Q 250 816 250 1647 
Q 250 2184 428 2587 
Q 606 2991 970 3192 
Q 1334 3394 1763 3394 
Q 2303 3394 2647 3120 
Q 2991 2847 3088 2344 
L 2541 2259 
Q 2463 2594 2264 2762 
Q 2066 2931 1784 2931 
Q 1359 2931 1093 2626 
Q 828 2322 828 1663 
Q 828 994 1084 691 
Q 1341 388 1753 388 
Q 2084 388 2306 591 
Q 2528 794 2588 1216 
z
" transform="scale(0.015625)"/>
       <path id="ArialMT-7a" d="M 125 0 
L 125 456 
L 2238 2881 
Q 1878 2863 1603 2863 
L 250 2863 
L 250 3319 
L 2963 3319 
L 2963 2947 
L 1166 841 
L 819 456 
Q 1197 484 1528 484 
L 3063 484 
L 3063 0 
L 125 0 
z
" transform="scale(0.015625)"/>
       <path id="ArialMT-79" d="M 397 -1278 
L 334 -750 
Q 519 -800 656 -800 
Q 844 -800 956 -737 
Q 1069 -675 1141 -563 
Q 1194 -478 1313 -144 
Q 1328 -97 1363 -6 
L 103 3319 
L 709 3319 
L 1400 1397 
Q 1534 1031 1641 628 
Q 1738 1016 1872 1384 
L 2581 3319 
L 3144 3319 
L 1881 -56 
Q 1678 -603 1566 -809 
Q 1416 -1088 1222 -1217 
Q 1028 -1347 759 -1347 
Q 597 -1347 397 -1278 
z
" transform="scale(0.015625)"/>
       <path id="ArialMT-6e" d="M 422 0 
L 422 3319 
L 928 3319 
L 928 2847 
Q 1294 3394 1984 3394 
Q 2284 3394 2536 3286 
Q 2788 3178 2913 3003 
Q 3038 2828 3088 2588 
Q 3119 2431 3119 2041 
L 3119 0 
L 2556 0 
L 2556 2019 
Q 2556 2363 2490 2533 
Q 2425 2703 2258 2804 
Q 2091 2906 1866 2906 
Q 1506 2906 1245 2678 
Q 984 2450 984 1813 
L 984 0 
L 422 0 
z
" transform="scale(0.015625)"/>
       <path id="ArialMT-69" d="M 425 3934 
L 425 4581 
L 988 4581 
L 988 3934 
L 425 3934 
z
M 425 0 
L 425 3319 
L 988 3319 
L 988 0 
L 425 0 
z
" transform="scale(0.015625)"/>
       <path id="ArialMT-6b" d="M 425 0 
L 425 4581 
L 988 4581 
L 988 1969 
L 2319 3319 
L 3047 3319 
L 1778 2088 
L 3175 0 
L 2481 0 
L 1384 1697 
L 988 1316 
L 988 0 
L 425 0 
z
" transform="scale(0.015625)"/>
       <path id="ArialMT-20" transform="scale(0.015625)"/>
       <path id="ArialMT-75" d="M 2597 0 
L 2597 488 
Q 2209 -75 1544 -75 
Q 1250 -75 995 37 
Q 741 150 617 320 
Q 494 491 444 738 
Q 409 903 409 1263 
L 409 3319 
L 972 3319 
L 972 1478 
Q 972 1038 1006 884 
Q 1059 663 1231 536 
Q 1403 409 1656 409 
Q 1909 409 2131 539 
Q 2353 669 2445 892 
Q 2538 1116 2538 1541 
L 2538 3319 
L 3100 3319 
L 3100 0 
L 2597 0 
z
" transform="scale(0.015625)"/>
       <path id="ArialMT-74" d="M 1650 503 
L 1731 6 
Q 1494 -44 1306 -44 
Q 1000 -44 831 53 
Q 663 150 594 308 
Q 525 466 525 972 
L 525 2881 
L 113 2881 
L 113 3319 
L 525 3319 
L 525 4141 
L 1084 4478 
L 1084 3319 
L 1650 3319 
L 1650 2881 
L 1084 2881 
L 1084 941 
Q 1084 700 1114 631 
Q 1144 563 1211 522 
Q 1278 481 1403 481 
Q 1497 481 1650 503 
z
" transform="scale(0.015625)"/>
       <path id="ArialMT-72" d="M 416 0 
L 416 3319 
L 922 3319 
L 922 2816 
Q 1116 3169 1280 3281 
Q 1444 3394 1641 3394 
Q 1925 3394 2219 3213 
L 2025 2691 
Q 1819 2813 1613 2813 
Q 1428 2813 1281 2702 
Q 1134 2591 1072 2394 
Q 978 2094 978 1738 
L 978 0 
L 416 0 
z
" transform="scale(0.015625)"/>
       <path id="ArialMT-61" d="M 2588 409 
Q 2275 144 1986 34 
Q 1697 -75 1366 -75 
Q 819 -75 525 192 
Q 231 459 231 875 
Q 231 1119 342 1320 
Q 453 1522 633 1644 
Q 813 1766 1038 1828 
Q 1203 1872 1538 1913 
Q 2219 1994 2541 2106 
Q 2544 2222 2544 2253 
Q 2544 2597 2384 2738 
Q 2169 2928 1744 2928 
Q 1347 2928 1158 2789 
Q 969 2650 878 2297 
L 328 2372 
Q 403 2725 575 2942 
Q 747 3159 1072 3276 
Q 1397 3394 1825 3394 
Q 2250 3394 2515 3294 
Q 2781 3194 2906 3042 
Q 3031 2891 3081 2659 
Q 3109 2516 3109 2141 
L 3109 1391 
Q 3109 606 3145 398 
Q 3181 191 3288 0 
L 2700 0 
Q 2613 175 2588 409 
z
M 2541 1666 
Q 2234 1541 1622 1453 
Q 1275 1403 1131 1340 
Q 988 1278 909 1158 
Q 831 1038 831 891 
Q 831 666 1001 516 
Q 1172 366 1500 366 
Q 1825 366 2078 508 
Q 2331 650 2450 897 
Q 2541 1088 2541 1459 
L 2541 1666 
z
" transform="scale(0.015625)"/>
       <path id="ArialMT-77" d="M 1034 0 
L 19 3319 
L 600 3319 
L 1128 1403 
L 1325 691 
Q 1338 744 1497 1375 
L 2025 3319 
L 2603 3319 
L 3100 1394 
L 3266 759 
L 3456 1400 
L 4025 3319 
L 4572 3319 
L 3534 0 
L 2950 0 
L 2422 1988 
L 2294 2553 
L 1622 0 
L 1034 0 
z
" transform="scale(0.015625)"/>
       <path id="ArialMT-6f" d="M 213 1659 
Q 213 2581 725 3025 
Q 1153 3394 1769 3394 
Q 2453 3394 2887 2945 
Q 3322 2497 3322 1706 
Q 3322 1066 3130 698 
Q 2938 331 2570 128 
Q 2203 -75 1769 -75 
Q 1072 -75 642 372 
Q 213 819 213 1659 
z
M 791 1659 
Q 791 1022 1069 705 
Q 1347 388 1769 388 
Q 2188 388 2466 706 
Q 2744 1025 2744 1678 
Q 2744 2294 2464 2611 
Q 2184 2928 1769 2928 
Q 1347 2928 1069 2612 
Q 791 2297 791 1659 
z
" transform="scale(0.015625)"/>
       <path id="ArialMT-15b" d="M 197 991 
L 753 1078 
Q 800 744 1014 566 
Q 1228 388 1613 388 
Q 2000 388 2187 545 
Q 2375 703 2375 916 
Q 2375 1106 2209 1216 
Q 2094 1291 1634 1406 
Q 1016 1563 777 1677 
Q 538 1791 414 1992 
Q 291 2194 291 2438 
Q 291 2659 392 2848 
Q 494 3038 669 3163 
Q 800 3259 1026 3326 
Q 1253 3394 1513 3394 
Q 1903 3394 2198 3281 
Q 2494 3169 2634 2976 
Q 2775 2784 2828 2463 
L 2278 2388 
Q 2241 2644 2061 2787 
Q 1881 2931 1553 2931 
Q 1166 2931 1000 2803 
Q 834 2675 834 2503 
Q 834 2394 903 2306 
Q 972 2216 1119 2156 
Q 1203 2125 1616 2013 
Q 2213 1853 2448 1751 
Q 2684 1650 2818 1456 
Q 2953 1263 2953 975 
Q 2953 694 2789 445 
Q 2625 197 2315 61 
Q 2006 -75 1616 -75 
Q 969 -75 630 194 
Q 291 463 197 991 
z
M 1230 3731 
L 1645 4606 
L 2383 4606 
L 1695 3731 
L 1230 3731 
z
" transform="scale(0.015625)"/>
      </defs>
      <use xlink:href="#ArialMT-57"/>
      <use xlink:href="#ArialMT-73" x="94.384766"/>
      <use xlink:href="#ArialMT-70" x="144.384766"/>
      <use xlink:href="#ArialMT-f3" x="200"/>
      <use xlink:href="#ArialMT-142" x="255.615234"/>
      <use xlink:href="#ArialMT-63" x="277.832031"/>
      <use xlink:href="#ArialMT-7a" x="327.832031"/>
      <use xlink:href="#ArialMT-79" x="377.832031"/>
      <use xlink:href="#ArialMT-6e" x="427.832031"/>
      <use xlink:href="#ArialMT-6e" x="483.447266"/>
      <use xlink:href="#ArialMT-69" x="539.0625"/>
      <use xlink:href="#ArialMT-6b" x="561.279297"/>
      <use xlink:href="#ArialMT-20" x="611.279297"/>
      <use xlink:href="#ArialMT-75" x="639.0625"/>
      <use xlink:href="#ArialMT-74" x="694.677734"/>
      <use xlink:href="#ArialMT-72" x="722.460938"/>
      <use xlink:href="#ArialMT-61" x="755.761719"/>
      <use xlink:href="#ArialMT-74" x="811.376953"/>
      <use xlink:href="#ArialMT-79" x="839.160156"/>
      <use xlink:href="#ArialMT-20" x="889.160156"/>
      <use xlink:href="#ArialMT-77" x="916.943359"/>
      <use xlink:href="#ArialMT-61" x="989.160156"/>
      <use xlink:href="#ArialMT-72" x="1044.775391"/>
      <use xlink:href="#ArialMT-74" x="1078.076172"/>
      <use xlink:href="#ArialMT-6f" x="1105.859375"/>
      <use xlink:href="#ArialMT-15b" x="1161.474609"/>
      <use xlink:href="#ArialMT-63" x="1211.474609"/>
      <use xlink:href="#ArialMT-69" x="1261.474609"/>
     </g>
     <!--  dalej od zera = gorzej -->
     <g style="fill: #262626" transform="translate(427.800938 1323.793453) scale(0.18 -0.18)">
      <defs>
       <path id="ArialMT-64" d="M 2575 0 
L 2575 419 
Q 2259 -75 1647 -75 
Q 1250 -75 917 144 
Q 584 363 401 755 
Q 219 1147 219 1656 
Q 219 2153 384 2558 
Q 550 2963 881 3178 
Q 1213 3394 1622 3394 
Q 1922 3394 2156 3267 
Q 2391 3141 2538 2938 
L 2538 4581 
L 3097 4581 
L 3097 0 
L 2575 0 
z
M 797 1656 
Q 797 1019 1065 703 
Q 1334 388 1700 388 
Q 2069 388 2326 689 
Q 2584 991 2584 1609 
Q 2584 2291 2321 2609 
Q 2059 2928 1675 2928 
Q 1300 2928 1048 2622 
Q 797 2316 797 1656 
z
" transform="scale(0.015625)"/>
       <path id="ArialMT-6c" d="M 409 0 
L 409 4581 
L 972 4581 
L 972 0 
L 409 0 
z
" transform="scale(0.015625)"/>
       <path id="ArialMT-65" d="M 2694 1069 
L 3275 997 
Q 3138 488 2766 206 
Q 2394 -75 1816 -75 
Q 1088 -75 661 373 
Q 234 822 234 1631 
Q 234 2469 665 2931 
Q 1097 3394 1784 3394 
Q 2450 3394 2872 2941 
Q 3294 2488 3294 1666 
Q 3294 1616 3291 1516 
L 816 1516 
Q 847 969 1125 678 
Q 1403 388 1819 388 
Q 2128 388 2347 550 
Q 2566 713 2694 1069 
z
M 847 1978 
L 2700 1978 
Q 2663 2397 2488 2606 
Q 2219 2931 1791 2931 
Q 1403 2931 1139 2672 
Q 875 2413 847 1978 
z
" transform="scale(0.015625)"/>
       <path id="ArialMT-6a" d="M 419 3928 
L 419 4581 
L 981 4581 
L 981 3928 
L 419 3928 
z
M -294 -1288 
L -188 -809 
Q -19 -853 78 -853 
Q 250 -853 334 -739 
Q 419 -625 419 -169 
L 419 3319 
L 981 3319 
L 981 -181 
Q 981 -794 822 -1034 
Q 619 -1347 147 -1347 
Q -81 -1347 -294 -1288 
z
" transform="scale(0.015625)"/>
       <path id="ArialMT-3d" d="M 3381 2694 
L 356 2694 
L 356 3219 
L 3381 3219 
L 3381 2694 
z
M 3381 1303 
L 356 1303 
L 356 1828 
L 3381 1828 
L 3381 1303 
z
" transform="scale(0.015625)"/>
       <path id="ArialMT-67" d="M 319 -275 
L 866 -356 
Q 900 -609 1056 -725 
Q 1266 -881 1628 -881 
Q 2019 -881 2231 -725 
Q 2444 -569 2519 -288 
Q 2563 -116 2559 434 
Q 2191 0 1641 0 
Q 956 0 581 494 
Q 206 988 206 1678 
Q 206 2153 378 2554 
Q 550 2956 876 3175 
Q 1203 3394 1644 3394 
Q 2231 3394 2613 2919 
L 2613 3319 
L 3131 3319 
L 3131 450 
Q 3131 -325 2973 -648 
Q 2816 -972 2473 -1159 
Q 2131 -1347 1631 -1347 
Q 1038 -1347 672 -1080 
Q 306 -813 319 -275 
z
M 784 1719 
Q 784 1066 1043 766 
Q 1303 466 1694 466 
Q 2081 466 2343 764 
Q 2606 1063 2606 1700 
Q 2606 2309 2336 2618 
Q 2066 2928 1684 2928 
Q 1309 2928 1046 2623 
Q 784 2319 784 1719 
z
" transform="scale(0.015625)"/>
      </defs>
      <use xlink:href="#ArialMT-20"/>
      <use xlink:href="#ArialMT-64" x="27.783203"/>
      <use xlink:href="#ArialMT-61" x="83.398438"/>
      <use xlink:href="#ArialMT-6c" x="139.013672"/>
      <use xlink:href="#ArialMT-65" x="161.230469"/>
      <use xlink:href="#ArialMT-6a" x="216.845703"/>
      <use xlink:href="#ArialMT-20" x="239.0625"/>
      <use xlink:href="#ArialMT-6f" x="266.845703"/>
      <use xlink:href="#ArialMT-64" x="322.460938"/>
      <use xlink:href="#ArialMT-20" x="378.076172"/>
      <use xlink:href="#ArialMT-7a" x="405.859375"/>
      <use xlink:href="#ArialMT-65" x="455.859375"/>
      <use xlink:href="#ArialMT-72" x="511.474609"/>
      <use xlink:href="#ArialMT-61" x="544.775391"/>
      <use xlink:href="#ArialMT-20" x="600.390625"/>
      <use xlink:href="#ArialMT-3d" x="628.173828"/>
      <use xlink:href="#ArialMT-20" x="686.572266"/>
      <use xlink:href="#ArialMT-67" x="714.355469"/>
      <use xlink:href="#ArialMT-6f" x="769.970703"/>
      <use xlink:href="#ArialMT-72" x="825.585938"/>
      <use xlink:href="#ArialMT-7a" x="858.886719"/>
      <use xlink:href="#ArialMT-65" x="908.886719"/>
      <use xlink:href="#ArialMT-6a" x="964.501953"/>
     </g>
    </g>
   </g>
   <g id="matplotlib.axis_2">
    <g id="ytick_1">
     <g id="line2d_7">
      <path d="M 126 1168.483095 
L 907.2 1168.483095 
" clip-path="url(#pa4b176d910)" style="fill: none; stroke: #d9d9d9; stroke-opacity: 0.8; stroke-width: 1.5; stroke-linecap: round"/>
     </g>
     <g id="text_8">
      <!-- −13 -->
      <g style="fill: #262626" transform="translate(85.511875 1174.38829) scale(0.165 -0.165)">
       <use xlink:href="#ArialMT-2212"/>
       <use xlink:href="#ArialMT-31" x="58.398438"/>
       <use xlink:href="#ArialMT-33" x="114.013672"/>
      </g>
     </g>
    </g>
    <g id="ytick_2">
     <g id="line2d_8">
      <path d="M 126 1045.341858 
L 907.2 1045.341858 
" clip-path="url(#pa4b176d910)" style="fill: none; stroke: #d9d9d9; stroke-opacity: 0.8; stroke-width: 1.5; stroke-linecap: round"/>
     </g>
     <g id="text_9">
      <!-- −12 -->
      <g style="fill: #262626" transform="translate(85.511875 1051.247053) scale(0.165 -0.165)">
       <use xlink:href="#ArialMT-2212"/>
       <use xlink:href="#ArialMT-31" x="58.398438"/>
       <use xlink:href="#ArialMT-32" x="114.013672"/>
      </g>
     </g>
    </g>
    <g id="ytick_3">
     <g id="line2d_9">
      <path d="M 126 922.200622 
L 907.2 922.200622 
" clip-path="url(#pa4b176d910)" style="fill: none; stroke: #d9d9d9; stroke-opacity: 0.8; stroke-width: 1.5; stroke-linecap: round"/>
     </g>
     <g id="text_10">
      <!-- −11 -->
      <g style="fill: #262626" transform="translate(86.72875 928.105817) scale(0.165 -0.165)">
       <use xlink:href="#ArialMT-2212"/>
       <use xlink:href="#ArialMT-31" x="58.398438"/>
       <use xlink:href="#ArialMT-31" x="106.638672"/>
      </g>
     </g>
    </g>
    <g id="ytick_4">
     <g id="line2d_10">
      <path d="M 126 799.059385 
L 907.2 799.059385 
" clip-path="url(#pa4b176d910)" style="fill: none; stroke: #d9d9d9; stroke-opacity: 0.8; stroke-width: 1.5; stroke-linecap: round"/>
     </g>
     <g id="text_11">
      <!-- −10 -->
      <g style="fill: #262626" transform="translate(85.511875 804.964581) scale(0.165 -0.165)">
       <use xlink:href="#ArialMT-2212"/>
       <use xlink:href="#ArialMT-31" x="58.398438"/>
       <use xlink:href="#ArialMT-30" x="114.013672"/>
      </g>
     </g>
    </g>
    <g id="ytick_5">
     <g id="line2d_11">
      <path d="M 126 675.918149 
L 907.2 675.918149 
" clip-path="url(#pa4b176d910)" style="fill: none; stroke: #d9d9d9; stroke-opacity: 0.8; stroke-width: 1.5; stroke-linecap: round"/>
     </g>
     <g id="text_12">
      <!-- −9 -->
      <g style="fill: #262626" transform="translate(94.687422 681.823344) scale(0.165 -0.165)">
       <defs>
        <path id="ArialMT-39" d="M 350 1059 
L 891 1109 
Q 959 728 1153 556 
Q 1347 384 1650 384 
Q 1909 384 2104 503 
Q 2300 622 2425 820 
Q 2550 1019 2634 1356 
Q 2719 1694 2719 2044 
Q 2719 2081 2716 2156 
Q 2547 1888 2255 1720 
Q 1963 1553 1622 1553 
Q 1053 1553 659 1965 
Q 266 2378 266 3053 
Q 266 3750 677 4175 
Q 1088 4600 1706 4600 
Q 2153 4600 2523 4359 
Q 2894 4119 3086 3673 
Q 3278 3228 3278 2384 
Q 3278 1506 3087 986 
Q 2897 466 2520 194 
Q 2144 -78 1638 -78 
Q 1100 -78 759 220 
Q 419 519 350 1059 
z
M 2653 3081 
Q 2653 3566 2395 3850 
Q 2138 4134 1775 4134 
Q 1400 4134 1122 3828 
Q 844 3522 844 3034 
Q 844 2597 1108 2323 
Q 1372 2050 1759 2050 
Q 2150 2050 2401 2323 
Q 2653 2597 2653 3081 
z
" transform="scale(0.015625)"/>
       </defs>
       <use xlink:href="#ArialMT-2212"/>
       <use xlink:href="#ArialMT-39" x="58.398438"/>
      </g>
     </g>
    </g>
    <g id="ytick_6">
     <g id="line2d_12">
      <path d="M 126 552.776912 
L 907.2 552.776912 
" clip-path="url(#pa4b176d910)" style="fill: none; stroke: #d9d9d9; stroke-opacity: 0.8; stroke-width: 1.5; stroke-linecap: round"/>
     </g>
     <g id="text_13">
      <!-- −8 -->
      <g style="fill: #262626" transform="translate(94.687422 558.682108) scale(0.165 -0.165)">
       <defs>
        <path id="ArialMT-38" d="M 1131 2484 
Q 781 2613 612 2850 
Q 444 3088 444 3419 
Q 444 3919 803 4259 
Q 1163 4600 1759 4600 
Q 2359 4600 2725 4251 
Q 3091 3903 3091 3403 
Q 3091 3084 2923 2848 
Q 2756 2613 2416 2484 
Q 2838 2347 3058 2040 
Q 3278 1734 3278 1309 
Q 3278 722 2862 322 
Q 2447 -78 1769 -78 
Q 1091 -78 675 323 
Q 259 725 259 1325 
Q 259 1772 486 2073 
Q 713 2375 1131 2484 
z
M 1019 3438 
Q 1019 3113 1228 2906 
Q 1438 2700 1772 2700 
Q 2097 2700 2305 2904 
Q 2513 3109 2513 3406 
Q 2513 3716 2298 3927 
Q 2084 4138 1766 4138 
Q 1444 4138 1231 3931 
Q 1019 3725 1019 3438 
z
M 838 1322 
Q 838 1081 952 856 
Q 1066 631 1291 507 
Q 1516 384 1775 384 
Q 2178 384 2440 643 
Q 2703 903 2703 1303 
Q 2703 1709 2433 1975 
Q 2163 2241 1756 2241 
Q 1359 2241 1098 1978 
Q 838 1716 838 1322 
z
" transform="scale(0.015625)"/>
       </defs>
       <use xlink:href="#ArialMT-2212"/>
       <use xlink:href="#ArialMT-38" x="58.398438"/>
      </g>
     </g>
    </g>
    <g id="ytick_7">
     <g id="line2d_13">
      <path d="M 126 429.635676 
L 907.2 429.635676 
" clip-path="url(#pa4b176d910)" style="fill: none; stroke: #d9d9d9; stroke-opacity: 0.8; stroke-width: 1.5; stroke-linecap: round"/>
     </g>
     <g id="text_14">
      <!-- −7 -->
      <g style="fill: #262626" transform="translate(94.687422 435.540871) scale(0.165 -0.165)">
       <defs>
        <path id="ArialMT-37" d="M 303 3981 
L 303 4522 
L 3269 4522 
L 3269 4084 
Q 2831 3619 2401 2847 
Q 1972 2075 1738 1259 
Q 1569 684 1522 0 
L 944 0 
Q 953 541 1156 1306 
Q 1359 2072 1739 2783 
Q 2119 3494 2547 3981 
L 303 3981 
z
" transform="scale(0.015625)"/>
       </defs>
       <use xlink:href="#ArialMT-2212"/>
       <use xlink:href="#ArialMT-37" x="58.398438"/>
      </g>
     </g>
    </g>
    <g id="ytick_8">
     <g id="line2d_14">
      <path d="M 126 306.494439 
L 907.2 306.494439 
" clip-path="url(#pa4b176d910)" style="fill: none; stroke: #d9d9d9; stroke-opacity: 0.8; stroke-width: 1.5; stroke-linecap: round"/>
     </g>
     <g id="text_15">
      <!-- −6 -->
      <g style="fill: #262626" transform="translate(94.687422 312.399635) scale(0.165 -0.165)">
       <defs>
        <path id="ArialMT-36" d="M 3184 3459 
L 2625 3416 
Q 2550 3747 2413 3897 
Q 2184 4138 1850 4138 
Q 1581 4138 1378 3988 
Q 1113 3794 959 3422 
Q 806 3050 800 2363 
Q 1003 2672 1297 2822 
Q 1591 2972 1913 2972 
Q 2475 2972 2870 2558 
Q 3266 2144 3266 1488 
Q 3266 1056 3080 686 
Q 2894 316 2569 119 
Q 2244 -78 1831 -78 
Q 1128 -78 684 439 
Q 241 956 241 2144 
Q 241 3472 731 4075 
Q 1159 4600 1884 4600 
Q 2425 4600 2770 4297 
Q 3116 3994 3184 3459 
z
M 888 1484 
Q 888 1194 1011 928 
Q 1134 663 1356 523 
Q 1578 384 1822 384 
Q 2178 384 2434 671 
Q 2691 959 2691 1453 
Q 2691 1928 2437 2201 
Q 2184 2475 1800 2475 
Q 1419 2475 1153 2201 
Q 888 1928 888 1484 
z
" transform="scale(0.015625)"/>
       </defs>
       <use xlink:href="#ArialMT-2212"/>
       <use xlink:href="#ArialMT-36" x="58.398438"/>
      </g>
     </g>
    </g>
    <g id="ytick_9">
     <g id="line2d_15">
      <path d="M 126 183.353203 
L 907.2 183.353203 
" clip-path="url(#pa4b176d910)" style="fill: none; stroke: #d9d9d9; stroke-opacity: 0.8; stroke-width: 1.5; stroke-linecap: round"/>
     </g>
     <g id="text_16">
      <!-- −5 -->
      <g style="fill: #262626" transform="translate(94.687422 189.258398) scale(0.165 -0.165)">
       <defs>
        <path id="ArialMT-35" d="M 266 1200 
L 856 1250 
Q 922 819 1161 601 
Q 1400 384 1738 384 
Q 2144 384 2425 690 
Q 2706 997 2706 1503 
Q 2706 1984 2436 2262 
Q 2166 2541 1728 2541 
Q 1456 2541 1237 2417 
Q 1019 2294 894 2097 
L 366 2166 
L 809 4519 
L 3088 4519 
L 3088 3981 
L 1259 3981 
L 1013 2750 
Q 1425 3038 1878 3038 
Q 2478 3038 2890 2622 
Q 3303 2206 3303 1553 
Q 3303 931 2941 478 
Q 2500 -78 1738 -78 
Q 1113 -78 717 272 
Q 322 622 266 1200 
z
" transform="scale(0.015625)"/>
       </defs>
       <use xlink:href="#ArialMT-2212"/>
       <use xlink:href="#ArialMT-35" x="58.398438"/>
      </g>
     </g>
    </g>
    <g id="text_17">
     <!-- Współczynnik eksploatacji -->
     <g style="fill: #262626" transform="translate(58.474125 820.937812) rotate(-90) scale(0.18 -0.18)">
      <use xlink:href="#ArialMT-57"/>
      <use xlink:href="#ArialMT-73" x="94.384766"/>
      <use xlink:href="#ArialMT-70" x="144.384766"/>
      <use xlink:href="#ArialMT-f3" x="200"/>
      <use xlink:href="#ArialMT-142" x="255.615234"/>
      <use xlink:href="#ArialMT-63" x="277.832031"/>
      <use xlink:href="#ArialMT-7a" x="327.832031"/>
      <use xlink:href="#ArialMT-79" x="377.832031"/>
      <use xlink:href="#ArialMT-6e" x="427.832031"/>
      <use xlink:href="#ArialMT-6e" x="483.447266"/>
      <use xlink:href="#ArialMT-69" x="539.0625"/>
      <use xlink:href="#ArialMT-6b" x="561.279297"/>
      <use xlink:href="#ArialMT-20" x="611.279297"/>
      <use xlink:href="#ArialMT-65" x="639.0625"/>
      <use xlink:href="#ArialMT-6b" x="694.677734"/>
      <use xlink:href="#ArialMT-73" x="744.677734"/>
      <use xlink:href="#ArialMT-70" x="794.677734"/>
      <use xlink:href="#ArialMT-6c" x="850.292969"/>
      <use xlink:href="#ArialMT-6f" x="872.509766"/>
      <use xlink:href="#ArialMT-61" x="928.125"/>
      <use xlink:href="#ArialMT-74" x="983.740234"/>
      <use xlink:href="#ArialMT-61" x="1011.523438"/>
      <use xlink:href="#ArialMT-63" x="1067.138672"/>
      <use xlink:href="#ArialMT-6a" x="1117.138672"/>
      <use xlink:href="#ArialMT-69" x="1139.355469"/>
     </g>
     <!--  dalej od zera = lepiej -->
     <g style="fill: #262626" transform="translate(77.723437 801.701719) rotate(-90) scale(0.18 -0.18)">
      <use xlink:href="#ArialMT-20"/>
      <use xlink:href="#ArialMT-64" x="27.783203"/>
      <use xlink:href="#ArialMT-61" x="83.398438"/>
      <use xlink:href="#ArialMT-6c" x="139.013672"/>
      <use xlink:href="#ArialMT-65" x="161.230469"/>
      <use xlink:href="#ArialMT-6a" x="216.845703"/>
      <use xlink:href="#ArialMT-20" x="239.0625"/>
      <use xlink:href="#ArialMT-6f" x="266.845703"/>
      <use xlink:href="#ArialMT-64" x="322.460938"/>
      <use xlink:href="#ArialMT-20" x="378.076172"/>
      <use xlink:href="#ArialMT-7a" x="405.859375"/>
      <use xlink:href="#ArialMT-65" x="455.859375"/>
      <use xlink:href="#ArialMT-72" x="511.474609"/>
      <use xlink:href="#ArialMT-61" x="544.775391"/>
      <use xlink:href="#ArialMT-20" x="600.390625"/>
      <use xlink:href="#ArialMT-3d" x="628.173828"/>
      <use xlink:href="#ArialMT-20" x="686.572266"/>
      <use xlink:href="#ArialMT-6c" x="714.355469"/>
      <use xlink:href="#ArialMT-65" x="736.572266"/>
      <use xlink:href="#ArialMT-70" x="792.1875"/>
      <use xlink:href="#ArialMT-69" x="847.802734"/>
      <use xlink:href="#ArialMT-65" x="870.019531"/>
      <use xlink:href="#ArialMT-6a" x="925.634766"/>
     </g>
    </g>
   </g>
   <g id="PathCollection_1">
    <defs>
     <path id="C0_0_7bf3aa6e88" d="M 0 4.5 
C 1.193414 4.5 2.338109 4.025852 3.181981 3.181981 
C 4.025852 2.338109 4.5 1.193414 4.5 -0 
C 4.5 -1.193414 4.025852 -2.338109 3.181981 -3.181981 
C 2.338109 -4.025852 1.193414 -4.5 0 -4.5 
C -1.193414 -4.5 -2.338109 -4.025852 -3.181981 -3.181981 
C -4.025852 -2.338109 -4.5 -1.193414 -4.5 0 
C -4.5 1.193414 -4.025852 2.338109 -3.181981 3.181981 
C -2.338109 4.025852 -1.193414 4.5 0 4.5 
z
"/>
    </defs>
    <g clip-path="url(#pa4b176d910)">
     <use xlink:href="#C0_0_7bf3aa6e88" x="510.194035" y="718.897336" style="fill: #db5f57; stroke: #ffffff; stroke-width: 0.72"/>
    </g>
    <g clip-path="url(#pa4b176d910)">
     <use xlink:href="#C0_0_7bf3aa6e88" x="533.656869" y="733.349877" style="fill: #dbd057; stroke: #ffffff; stroke-width: 0.72"/>
    </g>
    <g clip-path="url(#pa4b176d910)">
     <use xlink:href="#C0_0_7bf3aa6e88" x="543.451561" y="896.2758" style="fill: #db5f57; stroke: #ffffff; stroke-width: 0.72"/>
    </g>
    <g clip-path="url(#pa4b176d910)">
     <use xlink:href="#C0_0_7bf3aa6e88" x="518.318797" y="508.45275" style="fill: #db5f57; stroke: #ffffff; stroke-width: 0.72"/>
    </g>
    <g clip-path="url(#pa4b176d910)">
     <use xlink:href="#C0_0_7bf3aa6e88" x="520.82122" y="329.742091" style="fill: #dbd057; stroke: #ffffff; stroke-width: 0.72"/>
    </g>
    <g clip-path="url(#pa4b176d910)">
     <use xlink:href="#C0_0_7bf3aa6e88" x="448.889239" y="574.411876" style="fill: #75db57; stroke: #ffffff; stroke-width: 0.72"/>
    </g>
    <g clip-path="url(#pa4b176d910)">
     <use xlink:href="#C0_0_7bf3aa6e88" x="501.7447" y="851.409841" style="fill: #db5f57; stroke: #ffffff; stroke-width: 0.72"/>
    </g>
    <g clip-path="url(#pa4b176d910)">
     <use xlink:href="#C0_0_7bf3aa6e88" x="441.682772" y="719.974854" style="fill: #57dbaa; stroke: #ffffff; stroke-width: 0.72"/>
    </g>
    <g clip-path="url(#pa4b176d910)">
     <use xlink:href="#C0_0_7bf3aa6e88" x="450.687178" y="562.984696" style="fill: #75db57; stroke: #ffffff; stroke-width: 0.72"/>
    </g>
    <g clip-path="url(#pa4b176d910)">
     <use xlink:href="#C0_0_7bf3aa6e88" x="500.342913" y="794.38854" style="fill: #db5f57; stroke: #ffffff; stroke-width: 0.72"/>
    </g>
    <g clip-path="url(#pa4b176d910)">
     <use xlink:href="#C0_0_7bf3aa6e88" x="569.6233" y="1210.581818" style="fill: #579bdb; stroke: #ffffff; stroke-width: 0.72"/>
    </g>
    <g clip-path="url(#pa4b176d910)">
     <use xlink:href="#C0_0_7bf3aa6e88" x="478.937762" y="696.351989" style="fill: #dbd057; stroke: #ffffff; stroke-width: 0.72"/>
    </g>
    <g clip-path="url(#pa4b176d910)">
     <use xlink:href="#C0_0_7bf3aa6e88" x="534.085278" y="818.229051" style="fill: #579bdb; stroke: #ffffff; stroke-width: 0.72"/>
    </g>
    <g clip-path="url(#pa4b176d910)">
     <use xlink:href="#C0_0_7bf3aa6e88" x="492.789773" y="684.938216" style="fill: #db5f57; stroke: #ffffff; stroke-width: 0.72"/>
    </g>
    <g clip-path="url(#pa4b176d910)">
     <use xlink:href="#C0_0_7bf3aa6e88" x="496.809271" y="995.476054" style="fill: #db5f57; stroke: #ffffff; stroke-width: 0.72"/>
    </g>
    <g clip-path="url(#pa4b176d910)">
     <use xlink:href="#C0_0_7bf3aa6e88" x="551.844339" y="947.804874" style="fill: #579bdb; stroke: #ffffff; stroke-width: 0.72"/>
    </g>
    <g clip-path="url(#pa4b176d910)">
     <use xlink:href="#C0_0_7bf3aa6e88" x="500.205722" y="856.140862" style="fill: #db5f57; stroke: #ffffff; stroke-width: 0.72"/>
    </g>
    <g clip-path="url(#pa4b176d910)">
     <use xlink:href="#C0_0_7bf3aa6e88" x="547.617203" y="983.606605" style="fill: #579bdb; stroke: #ffffff; stroke-width: 0.72"/>
    </g>
    <g clip-path="url(#pa4b176d910)">
     <use xlink:href="#C0_0_7bf3aa6e88" x="521.847594" y="698.829539" style="fill: #75db57; stroke: #ffffff; stroke-width: 0.72"/>
    </g>
    <g clip-path="url(#pa4b176d910)">
     <use xlink:href="#C0_0_7bf3aa6e88" x="531.757672" y="898.919335" style="fill: #db5f57; stroke: #ffffff; stroke-width: 0.72"/>
    </g>
    <g clip-path="url(#pa4b176d910)">
     <use xlink:href="#C0_0_7bf3aa6e88" x="567.457635" y="1002.568477" style="fill: #dbd057; stroke: #ffffff; stroke-width: 0.72"/>
    </g>
    <g clip-path="url(#pa4b176d910)">
     <use xlink:href="#C0_0_7bf3aa6e88" x="599.953356" y="697.955138" style="fill: #db5f57; stroke: #ffffff; stroke-width: 0.72"/>
    </g>
    <g clip-path="url(#pa4b176d910)">
     <use xlink:href="#C0_0_7bf3aa6e88" x="518.801169" y="377.18505" style="fill: #dbd057; stroke: #ffffff; stroke-width: 0.72"/>
    </g>
    <g clip-path="url(#pa4b176d910)">
     <use xlink:href="#C0_0_7bf3aa6e88" x="500.56939" y="746.169986" style="fill: #8557db; stroke: #ffffff; stroke-width: 0.72"/>
    </g>
    <g clip-path="url(#pa4b176d910)">
     <use xlink:href="#C0_0_7bf3aa6e88" x="547.995452" y="1101.347593" style="fill: #579bdb; stroke: #ffffff; stroke-width: 0.72"/>
    </g>
    <g clip-path="url(#pa4b176d910)">
     <use xlink:href="#C0_0_7bf3aa6e88" x="470.367896" y="621.508657" style="fill: #db5f57; stroke: #ffffff; stroke-width: 0.72"/>
    </g>
    <g clip-path="url(#pa4b176d910)">
     <use xlink:href="#C0_0_7bf3aa6e88" x="439.655248" y="452.310035" style="fill: #75db57; stroke: #ffffff; stroke-width: 0.72"/>
    </g>
    <g clip-path="url(#pa4b176d910)">
     <use xlink:href="#C0_0_7bf3aa6e88" x="472.819024" y="422.76508" style="fill: #dbd057; stroke: #ffffff; stroke-width: 0.72"/>
    </g>
    <g clip-path="url(#pa4b176d910)">
     <use xlink:href="#C0_0_7bf3aa6e88" x="430.356798" y="222.218182" style="fill: #db57c0; stroke: #ffffff; stroke-width: 0.72"/>
    </g>
    <g clip-path="url(#pa4b176d910)">
     <use xlink:href="#C0_0_7bf3aa6e88" x="517.192135" y="1082.528282" style="fill: #8557db; stroke: #ffffff; stroke-width: 0.72"/>
    </g>
    <g clip-path="url(#pa4b176d910)">
     <use xlink:href="#C0_0_7bf3aa6e88" x="451.283542" y="584.136055" style="fill: #75db57; stroke: #ffffff; stroke-width: 0.72"/>
    </g>
    <g clip-path="url(#pa4b176d910)">
     <use xlink:href="#C0_0_7bf3aa6e88" x="575.826701" y="1193.519897" style="fill: #8557db; stroke: #ffffff; stroke-width: 0.72"/>
    </g>
    <g clip-path="url(#pa4b176d910)">
     <use xlink:href="#C0_0_7bf3aa6e88" x="485.858522" y="772.850295" style="fill: #db5f57; stroke: #ffffff; stroke-width: 0.72"/>
    </g>
    <g clip-path="url(#pa4b176d910)">
     <use xlink:href="#C0_0_7bf3aa6e88" x="570.240445" y="881.079874" style="fill: #579bdb; stroke: #ffffff; stroke-width: 0.72"/>
    </g>
    <g clip-path="url(#pa4b176d910)">
     <use xlink:href="#C0_0_7bf3aa6e88" x="444.923553" y="446.676694" style="fill: #75db57; stroke: #ffffff; stroke-width: 0.72"/>
    </g>
    <g clip-path="url(#pa4b176d910)">
     <use xlink:href="#C0_0_7bf3aa6e88" x="485.919029" y="730.906177" style="fill: #db5f57; stroke: #ffffff; stroke-width: 0.72"/>
    </g>
    <g clip-path="url(#pa4b176d910)">
     <use xlink:href="#C0_0_7bf3aa6e88" x="456.342633" y="514.17681" style="fill: #57dbaa; stroke: #ffffff; stroke-width: 0.72"/>
    </g>
    <g clip-path="url(#pa4b176d910)">
     <use xlink:href="#C0_0_7bf3aa6e88" x="489.375906" y="572.679239" style="fill: #db5f57; stroke: #ffffff; stroke-width: 0.72"/>
    </g>
    <g clip-path="url(#pa4b176d910)">
     <use xlink:href="#C0_0_7bf3aa6e88" x="445.061801" y="440.823183" style="fill: #75db57; stroke: #ffffff; stroke-width: 0.72"/>
    </g>
    <g clip-path="url(#pa4b176d910)">
     <use xlink:href="#C0_0_7bf3aa6e88" x="508.499495" y="690.795281" style="fill: #db5f57; stroke: #ffffff; stroke-width: 0.72"/>
    </g>
    <g clip-path="url(#pa4b176d910)">
     <use xlink:href="#C0_0_7bf3aa6e88" x="586.670799" y="818.573766" style="fill: #dbd057; stroke: #ffffff; stroke-width: 0.72"/>
    </g>
    <g clip-path="url(#pa4b176d910)">
     <use xlink:href="#C0_0_7bf3aa6e88" x="443.222524" y="403.210627" style="fill: #8557db; stroke: #ffffff; stroke-width: 0.72"/>
    </g>
    <g clip-path="url(#pa4b176d910)">
     <use xlink:href="#C0_0_7bf3aa6e88" x="471.217686" y="689.631052" style="fill: #db5f57; stroke: #ffffff; stroke-width: 0.72"/>
    </g>
    <g clip-path="url(#pa4b176d910)">
     <use xlink:href="#C0_0_7bf3aa6e88" x="500.208353" y="586.658534" style="fill: #75db57; stroke: #ffffff; stroke-width: 0.72"/>
    </g>
    <g clip-path="url(#pa4b176d910)">
     <use xlink:href="#C0_0_7bf3aa6e88" x="481.574518" y="427.570983" style="fill: #db5f57; stroke: #ffffff; stroke-width: 0.72"/>
    </g>
    <g clip-path="url(#pa4b176d910)">
     <use xlink:href="#C0_0_7bf3aa6e88" x="491.407423" y="405.833246" style="fill: #dbd057; stroke: #ffffff; stroke-width: 0.72"/>
    </g>
    <g clip-path="url(#pa4b176d910)">
     <use xlink:href="#C0_0_7bf3aa6e88" x="457.535061" y="429.798715" style="fill: #75db57; stroke: #ffffff; stroke-width: 0.72"/>
    </g>
    <g clip-path="url(#pa4b176d910)">
     <use xlink:href="#C0_0_7bf3aa6e88" x="586.558908" y="893.535928" style="fill: #579bdb; stroke: #ffffff; stroke-width: 0.72"/>
    </g>
   </g>
   <g id="patch_3">
    <path d="M 504.200856 887.102498 
C 510.998662 886.952519 517.235633 873.966804 521.538151 851.005305 
C 525.840668 828.043807 527.857449 796.98123 527.144321 764.658747 
C 526.431194 732.336264 523.046381 701.392862 517.735349 678.643466 
C 512.424317 655.894071 505.620688 643.196069 498.822883 643.346048 
C 492.025077 643.496027 485.788105 656.481743 481.485588 679.443241 
C 477.183071 702.404739 475.16629 733.467316 475.879417 765.789799 
C 476.592545 798.112282 479.977357 829.055684 485.288389 851.80508 
C 490.599421 874.554476 497.40305 887.252477 504.200856 887.102498 
z
" clip-path="url(#pa4b176d910)" style="fill: #808080; opacity: 0.2; stroke: #808080; stroke-width: 1.5; stroke-linejoin: miter"/>
   </g>
   <g id="patch_4">
    <path d="M 563.475528 1202.319384 
C 569.591787 1201.837339 574.070879 1183.770349 575.926335 1152.097459 
C 577.781792 1120.424569 576.862125 1077.73173 573.369878 1033.421544 
C 569.877632 989.111358 564.097934 946.801555 557.303695 915.810379 
C 550.509456 884.819203 543.255396 867.676945 537.139138 868.15899 
C 531.022879 868.641034 526.543788 886.708024 524.688331 918.380914 
C 522.832874 950.053804 523.752542 992.746643 527.244788 1037.056829 
C 530.737034 1081.367016 536.516732 1123.676818 543.310971 1154.667994 
C 550.10521 1185.659171 557.35927 1202.801428 563.475528 1202.319384 
z
" clip-path="url(#pa4b176d910)" style="fill: #808080; opacity: 0.2; stroke: #808080; stroke-width: 1.5; stroke-linejoin: miter"/>
   </g>
   <g id="patch_5">
    <path d="M 494.512892 598.389598 
C 500.193085 598.730878 506.528238 584.297831 512.123106 558.26917 
C 517.717973 532.240508 522.11576 496.741356 524.347904 459.58999 
C 526.580048 422.438623 526.464305 386.668287 524.026166 360.156983 
C 521.588027 333.645679 517.026555 318.557937 511.346361 318.216657 
C 505.666168 317.875377 499.331015 332.308424 493.736147 358.337085 
C 488.14128 384.365747 483.743493 419.864899 481.511349 457.016266 
C 479.279205 494.167632 479.394948 529.937968 481.833087 556.449272 
C 484.271226 582.960576 488.832698 598.048318 494.512892 598.389598 
z
" clip-path="url(#pa4b176d910)" style="fill: #808080; opacity: 0.2; stroke: #808080; stroke-width: 1.5; stroke-linejoin: miter"/>
   </g>
   <g id="patch_6">
    <path d="M 455.674245 667.579454 
C 459.888085 667.448552 463.354946 648.814692 465.311291 615.781767 
C 467.267636 582.748841 467.553738 538.013842 466.106588 491.429134 
C 464.659438 444.844426 461.597188 400.213443 457.594263 367.365642 
C 453.591338 334.517841 448.97456 316.135099 444.760719 316.266002 
C 440.546879 316.396904 437.080019 335.030764 435.123674 368.063689 
C 433.167329 401.096614 432.881226 445.831613 434.328376 492.416322 
C 435.775527 539.00103 438.837777 583.632013 442.840702 616.479814 
C 446.843626 649.327615 451.460405 667.710357 455.674245 667.579454 
z
" clip-path="url(#pa4b176d910)" style="fill: #808080; opacity: 0.2; stroke: #808080; stroke-width: 1.5; stroke-linejoin: miter"/>
   </g>
   <g id="patch_7">
    <path d="M 571.939192 949.283503 
C 574.619605 949.578391 578.656946 936.532684 583.162037 913.019548 
C 587.667128 889.506412 592.272149 857.44559 595.962897 823.898107 
C 599.653646 790.350624 602.128788 758.055483 602.843202 734.125313 
C 603.557617 710.195143 602.452975 696.583738 599.772562 696.28885 
C 597.092149 695.993963 593.054808 709.03967 588.549717 732.552806 
C 584.044625 756.065942 579.439605 788.126763 575.748856 821.674246 
C 572.058108 855.221729 569.582966 887.516871 568.868552 911.447041 
C 568.154137 935.37721 569.258779 948.988616 571.939192 949.283503 
z
" clip-path="url(#pa4b176d910)" style="fill: #808080; opacity: 0.2; stroke: #808080; stroke-width: 1.5; stroke-linejoin: miter"/>
   </g>
   <g id="patch_8">
    <path d="M 126 1260 
L 126 172.8 
" style="fill: none; stroke: #cccccc; stroke-width: 1.875; stroke-linejoin: miter; stroke-linecap: square"/>
   </g>
   <g id="patch_9">
    <path d="M 907.2 1260 
L 907.2 172.8 
" style="fill: none; stroke: #cccccc; stroke-width: 1.875; stroke-linejoin: miter; stroke-linecap: square"/>
   </g>
   <g id="patch_10">
    <path d="M 126 1260 
L 907.2 1260 
" style="fill: none; stroke: #cccccc; stroke-width: 1.875; stroke-linejoin: miter; stroke-linecap: square"/>
   </g>
   <g id="patch_11">
    <path d="M 126 172.8 
L 907.2 172.8 
" style="fill: none; stroke: #cccccc; stroke-width: 1.875; stroke-linejoin: miter; stroke-linecap: square"/>
   </g>
   <g id="text_18">
    <!-- Audi A3 -->
    <g style="fill: #262626" transform="translate(510.194035 718.897336) scale(0.12 -0.12)">
     <defs>
      <path id="ArialMT-41" d="M -9 0 
L 1750 4581 
L 2403 4581 
L 4278 0 
L 3588 0 
L 3053 1388 
L 1138 1388 
L 634 0 
L -9 0 
z
M 1313 1881 
L 2866 1881 
L 2388 3150 
Q 2169 3728 2063 4100 
Q 1975 3659 1816 3225 
L 1313 1881 
z
" transform="scale(0.015625)"/>
     </defs>
     <use xlink:href="#ArialMT-41"/>
     <use xlink:href="#ArialMT-75" x="66.699219"/>
     <use xlink:href="#ArialMT-64" x="122.314453"/>
     <use xlink:href="#ArialMT-69" x="177.929688"/>
     <use xlink:href="#ArialMT-20" x="200.146484"/>
     <use xlink:href="#ArialMT-41" x="222.429688"/>
     <use xlink:href="#ArialMT-33" x="289.128906"/>
    </g>
   </g>
   <g id="text_19">
    <!-- Audi A4 -->
    <g style="fill: #262626" transform="translate(533.656869 733.349877) scale(0.12 -0.12)">
     <use xlink:href="#ArialMT-41"/>
     <use xlink:href="#ArialMT-75" x="66.699219"/>
     <use xlink:href="#ArialMT-64" x="122.314453"/>
     <use xlink:href="#ArialMT-69" x="177.929688"/>
     <use xlink:href="#ArialMT-20" x="200.146484"/>
     <use xlink:href="#ArialMT-41" x="222.429688"/>
     <use xlink:href="#ArialMT-34" x="289.128906"/>
    </g>
   </g>
   <g id="text_20">
    <!-- BMW Seria1 -->
    <g style="fill: #262626" transform="translate(543.451561 896.2758) scale(0.12 -0.12)">
     <defs>
      <path id="ArialMT-42" d="M 469 0 
L 469 4581 
L 2188 4581 
Q 2713 4581 3030 4442 
Q 3347 4303 3526 4014 
Q 3706 3725 3706 3409 
Q 3706 3116 3547 2856 
Q 3388 2597 3066 2438 
Q 3481 2316 3704 2022 
Q 3928 1728 3928 1328 
Q 3928 1006 3792 729 
Q 3656 453 3456 303 
Q 3256 153 2954 76 
Q 2653 0 2216 0 
L 469 0 
z
M 1075 2656 
L 2066 2656 
Q 2469 2656 2644 2709 
Q 2875 2778 2992 2937 
Q 3109 3097 3109 3338 
Q 3109 3566 3000 3739 
Q 2891 3913 2687 3977 
Q 2484 4041 1991 4041 
L 1075 4041 
L 1075 2656 
z
M 1075 541 
L 2216 541 
Q 2509 541 2628 563 
Q 2838 600 2978 687 
Q 3119 775 3209 942 
Q 3300 1109 3300 1328 
Q 3300 1584 3169 1773 
Q 3038 1963 2805 2039 
Q 2572 2116 2134 2116 
L 1075 2116 
L 1075 541 
z
" transform="scale(0.015625)"/>
      <path id="ArialMT-4d" d="M 475 0 
L 475 4581 
L 1388 4581 
L 2472 1338 
Q 2622 884 2691 659 
Q 2769 909 2934 1394 
L 4031 4581 
L 4847 4581 
L 4847 0 
L 4263 0 
L 4263 3834 
L 2931 0 
L 2384 0 
L 1059 3900 
L 1059 0 
L 475 0 
z
" transform="scale(0.015625)"/>
      <path id="ArialMT-53" d="M 288 1472 
L 859 1522 
Q 900 1178 1048 958 
Q 1197 738 1509 602 
Q 1822 466 2213 466 
Q 2559 466 2825 569 
Q 3091 672 3220 851 
Q 3350 1031 3350 1244 
Q 3350 1459 3225 1620 
Q 3100 1781 2813 1891 
Q 2628 1963 1997 2114 
Q 1366 2266 1113 2400 
Q 784 2572 623 2826 
Q 463 3081 463 3397 
Q 463 3744 659 4045 
Q 856 4347 1234 4503 
Q 1613 4659 2075 4659 
Q 2584 4659 2973 4495 
Q 3363 4331 3572 4012 
Q 3781 3694 3797 3291 
L 3216 3247 
Q 3169 3681 2898 3903 
Q 2628 4125 2100 4125 
Q 1550 4125 1298 3923 
Q 1047 3722 1047 3438 
Q 1047 3191 1225 3031 
Q 1400 2872 2139 2705 
Q 2878 2538 3153 2413 
Q 3553 2228 3743 1945 
Q 3934 1663 3934 1294 
Q 3934 928 3725 604 
Q 3516 281 3123 101 
Q 2731 -78 2241 -78 
Q 1619 -78 1198 103 
Q 778 284 539 648 
Q 300 1013 288 1472 
z
" transform="scale(0.015625)"/>
     </defs>
     <use xlink:href="#ArialMT-42"/>
     <use xlink:href="#ArialMT-4d" x="66.699219"/>
     <use xlink:href="#ArialMT-57" x="150"/>
     <use xlink:href="#ArialMT-20" x="244.384766"/>
     <use xlink:href="#ArialMT-53" x="272.167969"/>
     <use xlink:href="#ArialMT-65" x="338.867188"/>
     <use xlink:href="#ArialMT-72" x="394.482422"/>
     <use xlink:href="#ArialMT-69" x="427.783203"/>
     <use xlink:href="#ArialMT-61" x="450"/>
     <use xlink:href="#ArialMT-31" x="505.615234"/>
    </g>
   </g>
   <g id="text_21">
    <!-- BMW Seria3 -->
    <g style="fill: #262626" transform="translate(518.318797 508.45275) scale(0.12 -0.12)">
     <use xlink:href="#ArialMT-42"/>
     <use xlink:href="#ArialMT-4d" x="66.699219"/>
     <use xlink:href="#ArialMT-57" x="150"/>
     <use xlink:href="#ArialMT-20" x="244.384766"/>
     <use xlink:href="#ArialMT-53" x="272.167969"/>
     <use xlink:href="#ArialMT-65" x="338.867188"/>
     <use xlink:href="#ArialMT-72" x="394.482422"/>
     <use xlink:href="#ArialMT-69" x="427.783203"/>
     <use xlink:href="#ArialMT-61" x="450"/>
     <use xlink:href="#ArialMT-33" x="505.615234"/>
    </g>
   </g>
   <g id="text_22">
    <!-- BMW Seria5 -->
    <g style="fill: #262626" transform="translate(520.82122 329.742091) scale(0.12 -0.12)">
     <use xlink:href="#ArialMT-42"/>
     <use xlink:href="#ArialMT-4d" x="66.699219"/>
     <use xlink:href="#ArialMT-57" x="150"/>
     <use xlink:href="#ArialMT-20" x="244.384766"/>
     <use xlink:href="#ArialMT-53" x="272.167969"/>
     <use xlink:href="#ArialMT-65" x="338.867188"/>
     <use xlink:href="#ArialMT-72" x="394.482422"/>
     <use xlink:href="#ArialMT-69" x="427.783203"/>
     <use xlink:href="#ArialMT-61" x="450"/>
     <use xlink:href="#ArialMT-35" x="505.615234"/>
    </g>
   </g>
   <g id="text_23">
    <!-- Citroën C3 -->
    <g style="fill: #262626" transform="translate(448.889239 574.411876) scale(0.12 -0.12)">
     <defs>
      <path id="ArialMT-43" d="M 3763 1606 
L 4369 1453 
Q 4178 706 3683 314 
Q 3188 -78 2472 -78 
Q 1731 -78 1267 223 
Q 803 525 561 1097 
Q 319 1669 319 2325 
Q 319 3041 592 3573 
Q 866 4106 1370 4382 
Q 1875 4659 2481 4659 
Q 3169 4659 3637 4309 
Q 4106 3959 4291 3325 
L 3694 3184 
Q 3534 3684 3231 3912 
Q 2928 4141 2469 4141 
Q 1941 4141 1586 3887 
Q 1231 3634 1087 3207 
Q 944 2781 944 2328 
Q 944 1744 1114 1308 
Q 1284 872 1643 656 
Q 2003 441 2422 441 
Q 2931 441 3284 734 
Q 3638 1028 3763 1606 
z
" transform="scale(0.015625)"/>
      <path id="ArialMT-eb" d="M 2694 1069 
L 3275 997 
Q 3138 488 2766 206 
Q 2394 -75 1816 -75 
Q 1088 -75 661 373 
Q 234 822 234 1631 
Q 234 2469 665 2931 
Q 1097 3394 1784 3394 
Q 2450 3394 2872 2941 
Q 3294 2488 3294 1666 
Q 3294 1616 3291 1516 
L 816 1516 
Q 847 969 1125 678 
Q 1403 388 1819 388 
Q 2128 388 2347 550 
Q 2566 713 2694 1069 
z
M 847 1978 
L 2700 1978 
Q 2663 2397 2488 2606 
Q 2219 2931 1791 2931 
Q 1403 2931 1139 2672 
Q 875 2413 847 1978 
z
M 887 3969 
L 887 4609 
L 1474 4609 
L 1474 3969 
L 887 3969 
z
M 2052 3969 
L 2052 4609 
L 2640 4609 
L 2640 3969 
L 2052 3969 
z
" transform="scale(0.015625)"/>
     </defs>
     <use xlink:href="#ArialMT-43"/>
     <use xlink:href="#ArialMT-69" x="72.216797"/>
     <use xlink:href="#ArialMT-74" x="94.433594"/>
     <use xlink:href="#ArialMT-72" x="122.216797"/>
     <use xlink:href="#ArialMT-6f" x="155.517578"/>
     <use xlink:href="#ArialMT-eb" x="211.132812"/>
     <use xlink:href="#ArialMT-6e" x="266.748047"/>
     <use xlink:href="#ArialMT-20" x="322.363281"/>
     <use xlink:href="#ArialMT-43" x="350.146484"/>
     <use xlink:href="#ArialMT-33" x="422.363281"/>
    </g>
   </g>
   <g id="text_24">
    <!-- Citroën C4 -->
    <g style="fill: #262626" transform="translate(501.7447 851.409841) scale(0.12 -0.12)">
     <use xlink:href="#ArialMT-43"/>
     <use xlink:href="#ArialMT-69" x="72.216797"/>
     <use xlink:href="#ArialMT-74" x="94.433594"/>
     <use xlink:href="#ArialMT-72" x="122.216797"/>
     <use xlink:href="#ArialMT-6f" x="155.517578"/>
     <use xlink:href="#ArialMT-eb" x="211.132812"/>
     <use xlink:href="#ArialMT-6e" x="266.748047"/>
     <use xlink:href="#ArialMT-20" x="322.363281"/>
     <use xlink:href="#ArialMT-43" x="350.146484"/>
     <use xlink:href="#ArialMT-34" x="422.363281"/>
    </g>
   </g>
   <g id="text_25">
    <!-- Ford C-MAX -->
    <g style="fill: #262626" transform="translate(441.682772 719.974854) scale(0.12 -0.12)">
     <defs>
      <path id="ArialMT-46" d="M 525 0 
L 525 4581 
L 3616 4581 
L 3616 4041 
L 1131 4041 
L 1131 2622 
L 3281 2622 
L 3281 2081 
L 1131 2081 
L 1131 0 
L 525 0 
z
" transform="scale(0.015625)"/>
      <path id="ArialMT-2d" d="M 203 1375 
L 203 1941 
L 1931 1941 
L 1931 1375 
L 203 1375 
z
" transform="scale(0.015625)"/>
      <path id="ArialMT-58" d="M 28 0 
L 1800 2388 
L 238 4581 
L 959 4581 
L 1791 3406 
Q 2050 3041 2159 2844 
Q 2313 3094 2522 3366 
L 3444 4581 
L 4103 4581 
L 2494 2422 
L 4228 0 
L 3478 0 
L 2325 1634 
Q 2228 1775 2125 1941 
Q 1972 1691 1906 1597 
L 756 0 
L 28 0 
z
" transform="scale(0.015625)"/>
     </defs>
     <use xlink:href="#ArialMT-46"/>
     <use xlink:href="#ArialMT-6f" x="61.083984"/>
     <use xlink:href="#ArialMT-72" x="116.699219"/>
     <use xlink:href="#ArialMT-64" x="150"/>
     <use xlink:href="#ArialMT-20" x="205.615234"/>
     <use xlink:href="#ArialMT-43" x="233.398438"/>
     <use xlink:href="#ArialMT-2d" x="305.615234"/>
     <use xlink:href="#ArialMT-4d" x="338.916016"/>
     <use xlink:href="#ArialMT-41" x="422.216797"/>
     <use xlink:href="#ArialMT-58" x="488.916016"/>
    </g>
   </g>
   <g id="text_26">
    <!-- Ford Fiesta -->
    <g style="fill: #262626" transform="translate(450.687178 562.984696) scale(0.12 -0.12)">
     <use xlink:href="#ArialMT-46"/>
     <use xlink:href="#ArialMT-6f" x="61.083984"/>
     <use xlink:href="#ArialMT-72" x="116.699219"/>
     <use xlink:href="#ArialMT-64" x="150"/>
     <use xlink:href="#ArialMT-20" x="205.615234"/>
     <use xlink:href="#ArialMT-46" x="233.398438"/>
     <use xlink:href="#ArialMT-69" x="294.482422"/>
     <use xlink:href="#ArialMT-65" x="316.699219"/>
     <use xlink:href="#ArialMT-73" x="372.314453"/>
     <use xlink:href="#ArialMT-74" x="422.314453"/>
     <use xlink:href="#ArialMT-61" x="450.097656"/>
    </g>
   </g>
   <g id="text_27">
    <!-- Ford Focus -->
    <g style="fill: #262626" transform="translate(500.342913 794.38854) scale(0.12 -0.12)">
     <use xlink:href="#ArialMT-46"/>
     <use xlink:href="#ArialMT-6f" x="61.083984"/>
     <use xlink:href="#ArialMT-72" x="116.699219"/>
     <use xlink:href="#ArialMT-64" x="150"/>
     <use xlink:href="#ArialMT-20" x="205.615234"/>
     <use xlink:href="#ArialMT-46" x="233.398438"/>
     <use xlink:href="#ArialMT-6f" x="294.482422"/>
     <use xlink:href="#ArialMT-63" x="350.097656"/>
     <use xlink:href="#ArialMT-75" x="400.097656"/>
     <use xlink:href="#ArialMT-73" x="455.712891"/>
    </g>
   </g>
   <g id="text_28">
    <!-- Ford Kuga -->
    <g style="fill: #262626" transform="translate(569.6233 1210.581818) scale(0.12 -0.12)">
     <defs>
      <path id="ArialMT-4b" d="M 469 0 
L 469 4581 
L 1075 4581 
L 1075 2309 
L 3350 4581 
L 4172 4581 
L 2250 2725 
L 4256 0 
L 3456 0 
L 1825 2319 
L 1075 1588 
L 1075 0 
L 469 0 
z
" transform="scale(0.015625)"/>
     </defs>
     <use xlink:href="#ArialMT-46"/>
     <use xlink:href="#ArialMT-6f" x="61.083984"/>
     <use xlink:href="#ArialMT-72" x="116.699219"/>
     <use xlink:href="#ArialMT-64" x="150"/>
     <use xlink:href="#ArialMT-20" x="205.615234"/>
     <use xlink:href="#ArialMT-4b" x="233.398438"/>
     <use xlink:href="#ArialMT-75" x="300.097656"/>
     <use xlink:href="#ArialMT-67" x="355.712891"/>
     <use xlink:href="#ArialMT-61" x="411.328125"/>
    </g>
   </g>
   <g id="text_29">
    <!-- Ford Mondeo -->
    <g style="fill: #262626" transform="translate(478.937762 696.351989) scale(0.12 -0.12)">
     <use xlink:href="#ArialMT-46"/>
     <use xlink:href="#ArialMT-6f" x="61.083984"/>
     <use xlink:href="#ArialMT-72" x="116.699219"/>
     <use xlink:href="#ArialMT-64" x="150"/>
     <use xlink:href="#ArialMT-20" x="205.615234"/>
     <use xlink:href="#ArialMT-4d" x="233.398438"/>
     <use xlink:href="#ArialMT-6f" x="316.699219"/>
     <use xlink:href="#ArialMT-6e" x="372.314453"/>
     <use xlink:href="#ArialMT-64" x="427.929688"/>
     <use xlink:href="#ArialMT-65" x="483.544922"/>
     <use xlink:href="#ArialMT-6f" x="539.160156"/>
    </g>
   </g>
   <g id="text_30">
    <!-- Honda CR-V -->
    <g style="fill: #262626" transform="translate(534.085278 818.229051) scale(0.12 -0.12)">
     <defs>
      <path id="ArialMT-48" d="M 513 0 
L 513 4581 
L 1119 4581 
L 1119 2700 
L 3500 2700 
L 3500 4581 
L 4106 4581 
L 4106 0 
L 3500 0 
L 3500 2159 
L 1119 2159 
L 1119 0 
L 513 0 
z
" transform="scale(0.015625)"/>
      <path id="ArialMT-52" d="M 503 0 
L 503 4581 
L 2534 4581 
Q 3147 4581 3465 4457 
Q 3784 4334 3975 4021 
Q 4166 3709 4166 3331 
Q 4166 2844 3850 2509 
Q 3534 2175 2875 2084 
Q 3116 1969 3241 1856 
Q 3506 1613 3744 1247 
L 4541 0 
L 3778 0 
L 3172 953 
Q 2906 1366 2734 1584 
Q 2563 1803 2427 1890 
Q 2291 1978 2150 2013 
Q 2047 2034 1813 2034 
L 1109 2034 
L 1109 0 
L 503 0 
z
M 1109 2559 
L 2413 2559 
Q 2828 2559 3062 2645 
Q 3297 2731 3419 2920 
Q 3541 3109 3541 3331 
Q 3541 3656 3305 3865 
Q 3069 4075 2559 4075 
L 1109 4075 
L 1109 2559 
z
" transform="scale(0.015625)"/>
      <path id="ArialMT-56" d="M 1803 0 
L 28 4581 
L 684 4581 
L 1875 1253 
Q 2019 853 2116 503 
Q 2222 878 2363 1253 
L 3600 4581 
L 4219 4581 
L 2425 0 
L 1803 0 
z
" transform="scale(0.015625)"/>
     </defs>
     <use xlink:href="#ArialMT-48"/>
     <use xlink:href="#ArialMT-6f" x="72.216797"/>
     <use xlink:href="#ArialMT-6e" x="127.832031"/>
     <use xlink:href="#ArialMT-64" x="183.447266"/>
     <use xlink:href="#ArialMT-61" x="239.0625"/>
     <use xlink:href="#ArialMT-20" x="294.677734"/>
     <use xlink:href="#ArialMT-43" x="322.460938"/>
     <use xlink:href="#ArialMT-52" x="394.677734"/>
     <use xlink:href="#ArialMT-2d" x="466.894531"/>
     <use xlink:href="#ArialMT-56" x="500.195312"/>
    </g>
   </g>
   <g id="text_31">
    <!-- Honda Civic -->
    <g style="fill: #262626" transform="translate(492.789773 684.938216) scale(0.12 -0.12)">
     <defs>
      <path id="ArialMT-76" d="M 1344 0 
L 81 3319 
L 675 3319 
L 1388 1331 
Q 1503 1009 1600 663 
Q 1675 925 1809 1294 
L 2547 3319 
L 3125 3319 
L 1869 0 
L 1344 0 
z
" transform="scale(0.015625)"/>
     </defs>
     <use xlink:href="#ArialMT-48"/>
     <use xlink:href="#ArialMT-6f" x="72.216797"/>
     <use xlink:href="#ArialMT-6e" x="127.832031"/>
     <use xlink:href="#ArialMT-64" x="183.447266"/>
     <use xlink:href="#ArialMT-61" x="239.0625"/>
     <use xlink:href="#ArialMT-20" x="294.677734"/>
     <use xlink:href="#ArialMT-43" x="322.460938"/>
     <use xlink:href="#ArialMT-69" x="394.677734"/>
     <use xlink:href="#ArialMT-76" x="416.894531"/>
     <use xlink:href="#ArialMT-69" x="466.894531"/>
     <use xlink:href="#ArialMT-63" x="489.111328"/>
    </g>
   </g>
   <g id="text_32">
    <!-- Hyundai I30 -->
    <g style="fill: #262626" transform="translate(496.809271 995.476054) scale(0.12 -0.12)">
     <defs>
      <path id="ArialMT-49" d="M 597 0 
L 597 4581 
L 1203 4581 
L 1203 0 
L 597 0 
z
" transform="scale(0.015625)"/>
     </defs>
     <use xlink:href="#ArialMT-48"/>
     <use xlink:href="#ArialMT-79" x="72.216797"/>
     <use xlink:href="#ArialMT-75" x="122.216797"/>
     <use xlink:href="#ArialMT-6e" x="177.832031"/>
     <use xlink:href="#ArialMT-64" x="233.447266"/>
     <use xlink:href="#ArialMT-61" x="289.0625"/>
     <use xlink:href="#ArialMT-69" x="344.677734"/>
     <use xlink:href="#ArialMT-20" x="366.894531"/>
     <use xlink:href="#ArialMT-49" x="394.677734"/>
     <use xlink:href="#ArialMT-33" x="422.460938"/>
     <use xlink:href="#ArialMT-30" x="478.076172"/>
    </g>
   </g>
   <g id="text_33">
    <!-- Hyundai Tucson -->
    <g style="fill: #262626" transform="translate(551.844339 947.804874) scale(0.12 -0.12)">
     <defs>
      <path id="ArialMT-54" d="M 1659 0 
L 1659 4041 
L 150 4041 
L 150 4581 
L 3781 4581 
L 3781 4041 
L 2266 4041 
L 2266 0 
L 1659 0 
z
" transform="scale(0.015625)"/>
     </defs>
     <use xlink:href="#ArialMT-48"/>
     <use xlink:href="#ArialMT-79" x="72.216797"/>
     <use xlink:href="#ArialMT-75" x="122.216797"/>
     <use xlink:href="#ArialMT-6e" x="177.832031"/>
     <use xlink:href="#ArialMT-64" x="233.447266"/>
     <use xlink:href="#ArialMT-61" x="289.0625"/>
     <use xlink:href="#ArialMT-69" x="344.677734"/>
     <use xlink:href="#ArialMT-20" x="366.894531"/>
     <use xlink:href="#ArialMT-54" x="392.927734"/>
     <use xlink:href="#ArialMT-75" x="450.261719"/>
     <use xlink:href="#ArialMT-63" x="505.876953"/>
     <use xlink:href="#ArialMT-73" x="555.876953"/>
     <use xlink:href="#ArialMT-6f" x="605.876953"/>
     <use xlink:href="#ArialMT-6e" x="661.492188"/>
    </g>
   </g>
   <g id="text_34">
    <!-- Kia Ceed -->
    <g style="fill: #262626" transform="translate(500.205722 856.140862) scale(0.12 -0.12)">
     <use xlink:href="#ArialMT-4b"/>
     <use xlink:href="#ArialMT-69" x="66.699219"/>
     <use xlink:href="#ArialMT-61" x="88.916016"/>
     <use xlink:href="#ArialMT-20" x="144.53125"/>
     <use xlink:href="#ArialMT-43" x="172.314453"/>
     <use xlink:href="#ArialMT-65" x="244.53125"/>
     <use xlink:href="#ArialMT-65" x="300.146484"/>
     <use xlink:href="#ArialMT-64" x="355.761719"/>
    </g>
   </g>
   <g id="text_35">
    <!-- Kia Sportage -->
    <g style="fill: #262626" transform="translate(547.617203 983.606605) scale(0.12 -0.12)">
     <use xlink:href="#ArialMT-4b"/>
     <use xlink:href="#ArialMT-69" x="66.699219"/>
     <use xlink:href="#ArialMT-61" x="88.916016"/>
     <use xlink:href="#ArialMT-20" x="144.53125"/>
     <use xlink:href="#ArialMT-53" x="172.314453"/>
     <use xlink:href="#ArialMT-70" x="239.013672"/>
     <use xlink:href="#ArialMT-6f" x="294.628906"/>
     <use xlink:href="#ArialMT-72" x="350.244141"/>
     <use xlink:href="#ArialMT-74" x="383.544922"/>
     <use xlink:href="#ArialMT-61" x="411.328125"/>
     <use xlink:href="#ArialMT-67" x="466.943359"/>
     <use xlink:href="#ArialMT-65" x="522.558594"/>
    </g>
   </g>
   <g id="text_36">
    <!-- MINI Cooper -->
    <g style="fill: #262626" transform="translate(521.847594 698.829539) scale(0.12 -0.12)">
     <defs>
      <path id="ArialMT-4e" d="M 488 0 
L 488 4581 
L 1109 4581 
L 3516 984 
L 3516 4581 
L 4097 4581 
L 4097 0 
L 3475 0 
L 1069 3600 
L 1069 0 
L 488 0 
z
" transform="scale(0.015625)"/>
     </defs>
     <use xlink:href="#ArialMT-4d"/>
     <use xlink:href="#ArialMT-49" x="83.300781"/>
     <use xlink:href="#ArialMT-4e" x="111.083984"/>
     <use xlink:href="#ArialMT-49" x="183.300781"/>
     <use xlink:href="#ArialMT-20" x="211.083984"/>
     <use xlink:href="#ArialMT-43" x="238.867188"/>
     <use xlink:href="#ArialMT-6f" x="311.083984"/>
     <use xlink:href="#ArialMT-6f" x="366.699219"/>
     <use xlink:href="#ArialMT-70" x="422.314453"/>
     <use xlink:href="#ArialMT-65" x="477.929688"/>
     <use xlink:href="#ArialMT-72" x="533.544922"/>
    </g>
   </g>
   <g id="text_37">
    <!-- Mazda 3 -->
    <g style="fill: #262626" transform="translate(531.757672 898.919335) scale(0.12 -0.12)">
     <use xlink:href="#ArialMT-4d"/>
     <use xlink:href="#ArialMT-61" x="83.300781"/>
     <use xlink:href="#ArialMT-7a" x="138.916016"/>
     <use xlink:href="#ArialMT-64" x="188.916016"/>
     <use xlink:href="#ArialMT-61" x="244.53125"/>
     <use xlink:href="#ArialMT-20" x="300.146484"/>
     <use xlink:href="#ArialMT-33" x="327.929688"/>
    </g>
   </g>
   <g id="text_38">
    <!-- Mazda 6 -->
    <g style="fill: #262626" transform="translate(567.457635 1002.568477) scale(0.12 -0.12)">
     <use xlink:href="#ArialMT-4d"/>
     <use xlink:href="#ArialMT-61" x="83.300781"/>
     <use xlink:href="#ArialMT-7a" x="138.916016"/>
     <use xlink:href="#ArialMT-64" x="188.916016"/>
     <use xlink:href="#ArialMT-61" x="244.53125"/>
     <use xlink:href="#ArialMT-20" x="300.146484"/>
     <use xlink:href="#ArialMT-36" x="327.929688"/>
    </g>
   </g>
   <g id="text_39">
    <!-- Mercedes-Benz KlasaA -->
    <g style="fill: #262626" transform="translate(599.953356 697.955138) scale(0.12 -0.12)">
     <use xlink:href="#ArialMT-4d"/>
     <use xlink:href="#ArialMT-65" x="83.300781"/>
     <use xlink:href="#ArialMT-72" x="138.916016"/>
     <use xlink:href="#ArialMT-63" x="172.216797"/>
     <use xlink:href="#ArialMT-65" x="222.216797"/>
     <use xlink:href="#ArialMT-64" x="277.832031"/>
     <use xlink:href="#ArialMT-65" x="333.447266"/>
     <use xlink:href="#ArialMT-73" x="389.0625"/>
     <use xlink:href="#ArialMT-2d" x="439.0625"/>
     <use xlink:href="#ArialMT-42" x="472.363281"/>
     <use xlink:href="#ArialMT-65" x="539.0625"/>
     <use xlink:href="#ArialMT-6e" x="594.677734"/>
     <use xlink:href="#ArialMT-7a" x="650.292969"/>
     <use xlink:href="#ArialMT-20" x="700.292969"/>
     <use xlink:href="#ArialMT-4b" x="728.076172"/>
     <use xlink:href="#ArialMT-6c" x="794.775391"/>
     <use xlink:href="#ArialMT-61" x="816.992188"/>
     <use xlink:href="#ArialMT-73" x="872.607422"/>
     <use xlink:href="#ArialMT-61" x="922.607422"/>
     <use xlink:href="#ArialMT-41" x="978.222656"/>
    </g>
   </g>
   <g id="text_40">
    <!-- Mercedes-Benz KlasaC -->
    <g style="fill: #262626" transform="translate(518.801169 377.18505) scale(0.12 -0.12)">
     <use xlink:href="#ArialMT-4d"/>
     <use xlink:href="#ArialMT-65" x="83.300781"/>
     <use xlink:href="#ArialMT-72" x="138.916016"/>
     <use xlink:href="#ArialMT-63" x="172.216797"/>
     <use xlink:href="#ArialMT-65" x="222.216797"/>
     <use xlink:href="#ArialMT-64" x="277.832031"/>
     <use xlink:href="#ArialMT-65" x="333.447266"/>
     <use xlink:href="#ArialMT-73" x="389.0625"/>
     <use xlink:href="#ArialMT-2d" x="439.0625"/>
     <use xlink:href="#ArialMT-42" x="472.363281"/>
     <use xlink:href="#ArialMT-65" x="539.0625"/>
     <use xlink:href="#ArialMT-6e" x="594.677734"/>
     <use xlink:href="#ArialMT-7a" x="650.292969"/>
     <use xlink:href="#ArialMT-20" x="700.292969"/>
     <use xlink:href="#ArialMT-4b" x="728.076172"/>
     <use xlink:href="#ArialMT-6c" x="794.775391"/>
     <use xlink:href="#ArialMT-61" x="816.992188"/>
     <use xlink:href="#ArialMT-73" x="872.607422"/>
     <use xlink:href="#ArialMT-61" x="922.607422"/>
     <use xlink:href="#ArialMT-43" x="978.222656"/>
    </g>
   </g>
   <g id="text_41">
    <!-- Nissan Juke -->
    <g style="fill: #262626" transform="translate(500.56939 746.169986) scale(0.12 -0.12)">
     <defs>
      <path id="ArialMT-4a" d="M 184 1300 
L 731 1375 
Q 753 850 928 656 
Q 1103 463 1413 463 
Q 1641 463 1806 567 
Q 1972 672 2034 851 
Q 2097 1031 2097 1425 
L 2097 4581 
L 2703 4581 
L 2703 1459 
Q 2703 884 2564 568 
Q 2425 253 2123 87 
Q 1822 -78 1416 -78 
Q 813 -78 492 269 
Q 172 616 184 1300 
z
" transform="scale(0.015625)"/>
     </defs>
     <use xlink:href="#ArialMT-4e"/>
     <use xlink:href="#ArialMT-69" x="72.216797"/>
     <use xlink:href="#ArialMT-73" x="94.433594"/>
     <use xlink:href="#ArialMT-73" x="144.433594"/>
     <use xlink:href="#ArialMT-61" x="194.433594"/>
     <use xlink:href="#ArialMT-6e" x="250.048828"/>
     <use xlink:href="#ArialMT-20" x="305.664062"/>
     <use xlink:href="#ArialMT-4a" x="333.447266"/>
     <use xlink:href="#ArialMT-75" x="383.447266"/>
     <use xlink:href="#ArialMT-6b" x="439.0625"/>
     <use xlink:href="#ArialMT-65" x="489.0625"/>
    </g>
   </g>
   <g id="text_42">
    <!-- Nissan Qashqai -->
    <g style="fill: #262626" transform="translate(547.995452 1101.347593) scale(0.12 -0.12)">
     <defs>
      <path id="ArialMT-51" d="M 3966 491 
Q 4388 200 4744 66 
L 4566 -356 
Q 4072 -178 3581 206 
Q 3072 -78 2456 -78 
Q 1834 -78 1328 222 
Q 822 522 548 1065 
Q 275 1609 275 2291 
Q 275 2969 550 3525 
Q 825 4081 1333 4372 
Q 1841 4663 2469 4663 
Q 3103 4663 3612 4361 
Q 4122 4059 4389 3517 
Q 4656 2975 4656 2294 
Q 4656 1728 4484 1276 
Q 4313 825 3966 491 
z
M 2631 1266 
Q 3156 1119 3497 828 
Q 4031 1316 4031 2294 
Q 4031 2850 3842 3265 
Q 3653 3681 3289 3911 
Q 2925 4141 2472 4141 
Q 1794 4141 1347 3677 
Q 900 3213 900 2291 
Q 900 1397 1342 919 
Q 1784 441 2472 441 
Q 2797 441 3084 563 
Q 2800 747 2484 825 
L 2631 1266 
z
" transform="scale(0.015625)"/>
      <path id="ArialMT-68" d="M 422 0 
L 422 4581 
L 984 4581 
L 984 2938 
Q 1378 3394 1978 3394 
Q 2347 3394 2619 3248 
Q 2891 3103 3008 2847 
Q 3125 2591 3125 2103 
L 3125 0 
L 2563 0 
L 2563 2103 
Q 2563 2525 2380 2717 
Q 2197 2909 1863 2909 
Q 1613 2909 1392 2779 
Q 1172 2650 1078 2428 
Q 984 2206 984 1816 
L 984 0 
L 422 0 
z
" transform="scale(0.015625)"/>
      <path id="ArialMT-71" d="M 2538 -1272 
L 2538 353 
Q 2406 169 2170 47 
Q 1934 -75 1669 -75 
Q 1078 -75 651 397 
Q 225 869 225 1691 
Q 225 2191 398 2587 
Q 572 2984 901 3189 
Q 1231 3394 1625 3394 
Q 2241 3394 2594 2875 
L 2594 3319 
L 3100 3319 
L 3100 -1272 
L 2538 -1272 
z
M 803 1669 
Q 803 1028 1072 708 
Q 1341 388 1716 388 
Q 2075 388 2334 692 
Q 2594 997 2594 1619 
Q 2594 2281 2320 2615 
Q 2047 2950 1678 2950 
Q 1313 2950 1058 2639 
Q 803 2328 803 1669 
z
" transform="scale(0.015625)"/>
     </defs>
     <use xlink:href="#ArialMT-4e"/>
     <use xlink:href="#ArialMT-69" x="72.216797"/>
     <use xlink:href="#ArialMT-73" x="94.433594"/>
     <use xlink:href="#ArialMT-73" x="144.433594"/>
     <use xlink:href="#ArialMT-61" x="194.433594"/>
     <use xlink:href="#ArialMT-6e" x="250.048828"/>
     <use xlink:href="#ArialMT-20" x="305.664062"/>
     <use xlink:href="#ArialMT-51" x="333.447266"/>
     <use xlink:href="#ArialMT-61" x="411.230469"/>
     <use xlink:href="#ArialMT-73" x="466.845703"/>
     <use xlink:href="#ArialMT-68" x="516.845703"/>
     <use xlink:href="#ArialMT-71" x="572.460938"/>
     <use xlink:href="#ArialMT-61" x="628.076172"/>
     <use xlink:href="#ArialMT-69" x="683.691406"/>
    </g>
   </g>
   <g id="text_43">
    <!-- Opel Astra -->
    <g style="fill: #262626" transform="translate(470.367896 621.508657) scale(0.12 -0.12)">
     <defs>
      <path id="ArialMT-4f" d="M 309 2231 
Q 309 3372 921 4017 
Q 1534 4663 2503 4663 
Q 3138 4663 3647 4359 
Q 4156 4056 4423 3514 
Q 4691 2972 4691 2284 
Q 4691 1588 4409 1038 
Q 4128 488 3612 205 
Q 3097 -78 2500 -78 
Q 1853 -78 1343 234 
Q 834 547 571 1087 
Q 309 1628 309 2231 
z
M 934 2222 
Q 934 1394 1379 917 
Q 1825 441 2497 441 
Q 3181 441 3623 922 
Q 4066 1403 4066 2288 
Q 4066 2847 3877 3264 
Q 3688 3681 3323 3911 
Q 2959 4141 2506 4141 
Q 1863 4141 1398 3698 
Q 934 3256 934 2222 
z
" transform="scale(0.015625)"/>
     </defs>
     <use xlink:href="#ArialMT-4f"/>
     <use xlink:href="#ArialMT-70" x="77.783203"/>
     <use xlink:href="#ArialMT-65" x="133.398438"/>
     <use xlink:href="#ArialMT-6c" x="189.013672"/>
     <use xlink:href="#ArialMT-20" x="211.230469"/>
     <use xlink:href="#ArialMT-41" x="233.513672"/>
     <use xlink:href="#ArialMT-73" x="300.212891"/>
     <use xlink:href="#ArialMT-74" x="350.212891"/>
     <use xlink:href="#ArialMT-72" x="377.996094"/>
     <use xlink:href="#ArialMT-61" x="411.296875"/>
    </g>
   </g>
   <g id="text_44">
    <!-- Opel Corsa -->
    <g style="fill: #262626" transform="translate(439.655248 452.310035) scale(0.12 -0.12)">
     <use xlink:href="#ArialMT-4f"/>
     <use xlink:href="#ArialMT-70" x="77.783203"/>
     <use xlink:href="#ArialMT-65" x="133.398438"/>
     <use xlink:href="#ArialMT-6c" x="189.013672"/>
     <use xlink:href="#ArialMT-20" x="211.230469"/>
     <use xlink:href="#ArialMT-43" x="239.013672"/>
     <use xlink:href="#ArialMT-6f" x="311.230469"/>
     <use xlink:href="#ArialMT-72" x="366.845703"/>
     <use xlink:href="#ArialMT-73" x="400.146484"/>
     <use xlink:href="#ArialMT-61" x="450.146484"/>
    </g>
   </g>
   <g id="text_45">
    <!-- Opel Insignia -->
    <g style="fill: #262626" transform="translate(472.819024 422.76508) scale(0.12 -0.12)">
     <use xlink:href="#ArialMT-4f"/>
     <use xlink:href="#ArialMT-70" x="77.783203"/>
     <use xlink:href="#ArialMT-65" x="133.398438"/>
     <use xlink:href="#ArialMT-6c" x="189.013672"/>
     <use xlink:href="#ArialMT-20" x="211.230469"/>
     <use xlink:href="#ArialMT-49" x="239.013672"/>
     <use xlink:href="#ArialMT-6e" x="266.796875"/>
     <use xlink:href="#ArialMT-73" x="322.412109"/>
     <use xlink:href="#ArialMT-69" x="372.412109"/>
     <use xlink:href="#ArialMT-67" x="394.628906"/>
     <use xlink:href="#ArialMT-6e" x="450.244141"/>
     <use xlink:href="#ArialMT-69" x="505.859375"/>
     <use xlink:href="#ArialMT-61" x="528.076172"/>
    </g>
   </g>
   <g id="text_46">
    <!-- Opel Meriva -->
    <g style="fill: #262626" transform="translate(430.356798 222.218182) scale(0.12 -0.12)">
     <use xlink:href="#ArialMT-4f"/>
     <use xlink:href="#ArialMT-70" x="77.783203"/>
     <use xlink:href="#ArialMT-65" x="133.398438"/>
     <use xlink:href="#ArialMT-6c" x="189.013672"/>
     <use xlink:href="#ArialMT-20" x="211.230469"/>
     <use xlink:href="#ArialMT-4d" x="239.013672"/>
     <use xlink:href="#ArialMT-65" x="322.314453"/>
     <use xlink:href="#ArialMT-72" x="377.929688"/>
     <use xlink:href="#ArialMT-69" x="411.230469"/>
     <use xlink:href="#ArialMT-76" x="433.447266"/>
     <use xlink:href="#ArialMT-61" x="483.447266"/>
    </g>
   </g>
   <g id="text_47">
    <!-- Opel Mokka -->
    <g style="fill: #262626" transform="translate(517.192135 1082.528282) scale(0.12 -0.12)">
     <use xlink:href="#ArialMT-4f"/>
     <use xlink:href="#ArialMT-70" x="77.783203"/>
     <use xlink:href="#ArialMT-65" x="133.398438"/>
     <use xlink:href="#ArialMT-6c" x="189.013672"/>
     <use xlink:href="#ArialMT-20" x="211.230469"/>
     <use xlink:href="#ArialMT-4d" x="239.013672"/>
     <use xlink:href="#ArialMT-6f" x="322.314453"/>
     <use xlink:href="#ArialMT-6b" x="377.929688"/>
     <use xlink:href="#ArialMT-6b" x="427.929688"/>
     <use xlink:href="#ArialMT-61" x="477.929688"/>
    </g>
   </g>
   <g id="text_48">
    <!-- Peugeot 20 -->
    <g style="fill: #262626" transform="translate(451.283542 584.136055) scale(0.12 -0.12)">
     <defs>
      <path id="ArialMT-50" d="M 494 0 
L 494 4581 
L 2222 4581 
Q 2678 4581 2919 4538 
Q 3256 4481 3484 4323 
Q 3713 4166 3852 3881 
Q 3991 3597 3991 3256 
Q 3991 2672 3619 2267 
Q 3247 1863 2275 1863 
L 1100 1863 
L 1100 0 
L 494 0 
z
M 1100 2403 
L 2284 2403 
Q 2872 2403 3119 2622 
Q 3366 2841 3366 3238 
Q 3366 3525 3220 3729 
Q 3075 3934 2838 4000 
Q 2684 4041 2272 4041 
L 1100 4041 
L 1100 2403 
z
" transform="scale(0.015625)"/>
     </defs>
     <use xlink:href="#ArialMT-50"/>
     <use xlink:href="#ArialMT-65" x="66.699219"/>
     <use xlink:href="#ArialMT-75" x="122.314453"/>
     <use xlink:href="#ArialMT-67" x="177.929688"/>
     <use xlink:href="#ArialMT-65" x="233.544922"/>
     <use xlink:href="#ArialMT-6f" x="289.160156"/>
     <use xlink:href="#ArialMT-74" x="344.775391"/>
     <use xlink:href="#ArialMT-20" x="372.558594"/>
     <use xlink:href="#ArialMT-32" x="400.341797"/>
     <use xlink:href="#ArialMT-30" x="455.957031"/>
    </g>
   </g>
   <g id="text_49">
    <!-- Peugeot 200 -->
    <g style="fill: #262626" transform="translate(575.826701 1193.519897) scale(0.12 -0.12)">
     <use xlink:href="#ArialMT-50"/>
     <use xlink:href="#ArialMT-65" x="66.699219"/>
     <use xlink:href="#ArialMT-75" x="122.314453"/>
     <use xlink:href="#ArialMT-67" x="177.929688"/>
     <use xlink:href="#ArialMT-65" x="233.544922"/>
     <use xlink:href="#ArialMT-6f" x="289.160156"/>
     <use xlink:href="#ArialMT-74" x="344.775391"/>
     <use xlink:href="#ArialMT-20" x="372.558594"/>
     <use xlink:href="#ArialMT-32" x="400.341797"/>
     <use xlink:href="#ArialMT-30" x="455.957031"/>
     <use xlink:href="#ArialMT-30" x="511.572266"/>
    </g>
   </g>
   <g id="text_50">
    <!-- Peugeot 30 -->
    <g style="fill: #262626" transform="translate(485.858522 772.850295) scale(0.12 -0.12)">
     <use xlink:href="#ArialMT-50"/>
     <use xlink:href="#ArialMT-65" x="66.699219"/>
     <use xlink:href="#ArialMT-75" x="122.314453"/>
     <use xlink:href="#ArialMT-67" x="177.929688"/>
     <use xlink:href="#ArialMT-65" x="233.544922"/>
     <use xlink:href="#ArialMT-6f" x="289.160156"/>
     <use xlink:href="#ArialMT-74" x="344.775391"/>
     <use xlink:href="#ArialMT-20" x="372.558594"/>
     <use xlink:href="#ArialMT-33" x="400.341797"/>
     <use xlink:href="#ArialMT-30" x="455.957031"/>
    </g>
   </g>
   <g id="text_51">
    <!-- Peugeot 300 -->
    <g style="fill: #262626" transform="translate(570.240445 881.079874) scale(0.12 -0.12)">
     <use xlink:href="#ArialMT-50"/>
     <use xlink:href="#ArialMT-65" x="66.699219"/>
     <use xlink:href="#ArialMT-75" x="122.314453"/>
     <use xlink:href="#ArialMT-67" x="177.929688"/>
     <use xlink:href="#ArialMT-65" x="233.544922"/>
     <use xlink:href="#ArialMT-6f" x="289.160156"/>
     <use xlink:href="#ArialMT-74" x="344.775391"/>
     <use xlink:href="#ArialMT-20" x="372.558594"/>
     <use xlink:href="#ArialMT-33" x="400.341797"/>
     <use xlink:href="#ArialMT-30" x="455.957031"/>
     <use xlink:href="#ArialMT-30" x="511.572266"/>
    </g>
   </g>
   <g id="text_52">
    <!-- Renault Clio -->
    <g style="fill: #262626" transform="translate(444.923553 446.676694) scale(0.12 -0.12)">
     <use xlink:href="#ArialMT-52"/>
     <use xlink:href="#ArialMT-65" x="72.216797"/>
     <use xlink:href="#ArialMT-6e" x="127.832031"/>
     <use xlink:href="#ArialMT-61" x="183.447266"/>
     <use xlink:href="#ArialMT-75" x="239.0625"/>
     <use xlink:href="#ArialMT-6c" x="294.677734"/>
     <use xlink:href="#ArialMT-74" x="316.894531"/>
     <use xlink:href="#ArialMT-20" x="344.677734"/>
     <use xlink:href="#ArialMT-43" x="372.460938"/>
     <use xlink:href="#ArialMT-6c" x="444.677734"/>
     <use xlink:href="#ArialMT-69" x="466.894531"/>
     <use xlink:href="#ArialMT-6f" x="489.111328"/>
    </g>
   </g>
   <g id="text_53">
    <!-- Renault Megane -->
    <g style="fill: #262626" transform="translate(485.919029 730.906177) scale(0.12 -0.12)">
     <use xlink:href="#ArialMT-52"/>
     <use xlink:href="#ArialMT-65" x="72.216797"/>
     <use xlink:href="#ArialMT-6e" x="127.832031"/>
     <use xlink:href="#ArialMT-61" x="183.447266"/>
     <use xlink:href="#ArialMT-75" x="239.0625"/>
     <use xlink:href="#ArialMT-6c" x="294.677734"/>
     <use xlink:href="#ArialMT-74" x="316.894531"/>
     <use xlink:href="#ArialMT-20" x="344.677734"/>
     <use xlink:href="#ArialMT-4d" x="372.460938"/>
     <use xlink:href="#ArialMT-65" x="455.761719"/>
     <use xlink:href="#ArialMT-67" x="511.376953"/>
     <use xlink:href="#ArialMT-61" x="566.992188"/>
     <use xlink:href="#ArialMT-6e" x="622.607422"/>
     <use xlink:href="#ArialMT-65" x="678.222656"/>
    </g>
   </g>
   <g id="text_54">
    <!-- Renault Scenic -->
    <g style="fill: #262626" transform="translate(456.342633 514.17681) scale(0.12 -0.12)">
     <use xlink:href="#ArialMT-52"/>
     <use xlink:href="#ArialMT-65" x="72.216797"/>
     <use xlink:href="#ArialMT-6e" x="127.832031"/>
     <use xlink:href="#ArialMT-61" x="183.447266"/>
     <use xlink:href="#ArialMT-75" x="239.0625"/>
     <use xlink:href="#ArialMT-6c" x="294.677734"/>
     <use xlink:href="#ArialMT-74" x="316.894531"/>
     <use xlink:href="#ArialMT-20" x="344.677734"/>
     <use xlink:href="#ArialMT-53" x="372.460938"/>
     <use xlink:href="#ArialMT-63" x="439.160156"/>
     <use xlink:href="#ArialMT-65" x="489.160156"/>
     <use xlink:href="#ArialMT-6e" x="544.775391"/>
     <use xlink:href="#ArialMT-69" x="600.390625"/>
     <use xlink:href="#ArialMT-63" x="622.607422"/>
    </g>
   </g>
   <g id="text_55">
    <!-- Seat Leon -->
    <g style="fill: #262626" transform="translate(489.375906 572.679239) scale(0.12 -0.12)">
     <defs>
      <path id="ArialMT-4c" d="M 469 0 
L 469 4581 
L 1075 4581 
L 1075 541 
L 3331 541 
L 3331 0 
L 469 0 
z
" transform="scale(0.015625)"/>
     </defs>
     <use xlink:href="#ArialMT-53"/>
     <use xlink:href="#ArialMT-65" x="66.699219"/>
     <use xlink:href="#ArialMT-61" x="122.314453"/>
     <use xlink:href="#ArialMT-74" x="177.929688"/>
     <use xlink:href="#ArialMT-20" x="205.712891"/>
     <use xlink:href="#ArialMT-4c" x="233.496094"/>
     <use xlink:href="#ArialMT-65" x="289.111328"/>
     <use xlink:href="#ArialMT-6f" x="344.726562"/>
     <use xlink:href="#ArialMT-6e" x="400.341797"/>
    </g>
   </g>
   <g id="text_56">
    <!-- Skoda Fabia -->
    <g style="fill: #262626" transform="translate(445.061801 440.823183) scale(0.12 -0.12)">
     <defs>
      <path id="ArialMT-62" d="M 941 0 
L 419 0 
L 419 4581 
L 981 4581 
L 981 2947 
Q 1338 3394 1891 3394 
Q 2197 3394 2470 3270 
Q 2744 3147 2920 2923 
Q 3097 2700 3197 2384 
Q 3297 2069 3297 1709 
Q 3297 856 2875 390 
Q 2453 -75 1863 -75 
Q 1275 -75 941 416 
L 941 0 
z
M 934 1684 
Q 934 1088 1097 822 
Q 1363 388 1816 388 
Q 2184 388 2453 708 
Q 2722 1028 2722 1663 
Q 2722 2313 2464 2622 
Q 2206 2931 1841 2931 
Q 1472 2931 1203 2611 
Q 934 2291 934 1684 
z
" transform="scale(0.015625)"/>
     </defs>
     <use xlink:href="#ArialMT-53"/>
     <use xlink:href="#ArialMT-6b" x="66.699219"/>
     <use xlink:href="#ArialMT-6f" x="116.699219"/>
     <use xlink:href="#ArialMT-64" x="172.314453"/>
     <use xlink:href="#ArialMT-61" x="227.929688"/>
     <use xlink:href="#ArialMT-20" x="283.544922"/>
     <use xlink:href="#ArialMT-46" x="311.328125"/>
     <use xlink:href="#ArialMT-61" x="372.412109"/>
     <use xlink:href="#ArialMT-62" x="428.027344"/>
     <use xlink:href="#ArialMT-69" x="483.642578"/>
     <use xlink:href="#ArialMT-61" x="505.859375"/>
    </g>
   </g>
   <g id="text_57">
    <!-- Skoda Octavia -->
    <g style="fill: #262626" transform="translate(508.499495 690.795281) scale(0.12 -0.12)">
     <use xlink:href="#ArialMT-53"/>
     <use xlink:href="#ArialMT-6b" x="66.699219"/>
     <use xlink:href="#ArialMT-6f" x="116.699219"/>
     <use xlink:href="#ArialMT-64" x="172.314453"/>
     <use xlink:href="#ArialMT-61" x="227.929688"/>
     <use xlink:href="#ArialMT-20" x="283.544922"/>
     <use xlink:href="#ArialMT-4f" x="311.328125"/>
     <use xlink:href="#ArialMT-63" x="389.111328"/>
     <use xlink:href="#ArialMT-74" x="439.111328"/>
     <use xlink:href="#ArialMT-61" x="466.894531"/>
     <use xlink:href="#ArialMT-76" x="522.509766"/>
     <use xlink:href="#ArialMT-69" x="572.509766"/>
     <use xlink:href="#ArialMT-61" x="594.726562"/>
    </g>
   </g>
   <g id="text_58">
    <!-- Skoda Superb -->
    <g style="fill: #262626" transform="translate(586.670799 818.573766) scale(0.12 -0.12)">
     <use xlink:href="#ArialMT-53"/>
     <use xlink:href="#ArialMT-6b" x="66.699219"/>
     <use xlink:href="#ArialMT-6f" x="116.699219"/>
     <use xlink:href="#ArialMT-64" x="172.314453"/>
     <use xlink:href="#ArialMT-61" x="227.929688"/>
     <use xlink:href="#ArialMT-20" x="283.544922"/>
     <use xlink:href="#ArialMT-53" x="311.328125"/>
     <use xlink:href="#ArialMT-75" x="378.027344"/>
     <use xlink:href="#ArialMT-70" x="433.642578"/>
     <use xlink:href="#ArialMT-65" x="489.257812"/>
     <use xlink:href="#ArialMT-72" x="544.873047"/>
     <use xlink:href="#ArialMT-62" x="578.173828"/>
    </g>
   </g>
   <g id="text_59">
    <!-- Suzuki Vitara -->
    <g style="fill: #262626" transform="translate(443.222524 403.210627) scale(0.12 -0.12)">
     <use xlink:href="#ArialMT-53"/>
     <use xlink:href="#ArialMT-75" x="66.699219"/>
     <use xlink:href="#ArialMT-7a" x="122.314453"/>
     <use xlink:href="#ArialMT-75" x="172.314453"/>
     <use xlink:href="#ArialMT-6b" x="227.929688"/>
     <use xlink:href="#ArialMT-69" x="277.929688"/>
     <use xlink:href="#ArialMT-20" x="300.146484"/>
     <use xlink:href="#ArialMT-56" x="327.929688"/>
     <use xlink:href="#ArialMT-69" x="392.878906"/>
     <use xlink:href="#ArialMT-74" x="415.095703"/>
     <use xlink:href="#ArialMT-61" x="442.878906"/>
     <use xlink:href="#ArialMT-72" x="498.494141"/>
     <use xlink:href="#ArialMT-61" x="531.794922"/>
    </g>
   </g>
   <g id="text_60">
    <!-- Toyota Corolla -->
    <g style="fill: #262626" transform="translate(471.217686 689.631052) scale(0.12 -0.12)">
     <use xlink:href="#ArialMT-54"/>
     <use xlink:href="#ArialMT-6f" x="49.958984"/>
     <use xlink:href="#ArialMT-79" x="105.574219"/>
     <use xlink:href="#ArialMT-6f" x="155.574219"/>
     <use xlink:href="#ArialMT-74" x="211.189453"/>
     <use xlink:href="#ArialMT-61" x="238.972656"/>
     <use xlink:href="#ArialMT-20" x="294.587891"/>
     <use xlink:href="#ArialMT-43" x="322.371094"/>
     <use xlink:href="#ArialMT-6f" x="394.587891"/>
     <use xlink:href="#ArialMT-72" x="450.203125"/>
     <use xlink:href="#ArialMT-6f" x="483.503906"/>
     <use xlink:href="#ArialMT-6c" x="539.119141"/>
     <use xlink:href="#ArialMT-6c" x="561.335938"/>
     <use xlink:href="#ArialMT-61" x="583.552734"/>
    </g>
   </g>
   <g id="text_61">
    <!-- Toyota Yaris -->
    <g style="fill: #262626" transform="translate(500.208353 586.658534) scale(0.12 -0.12)">
     <defs>
      <path id="ArialMT-59" d="M 1784 0 
L 1784 1941 
L 19 4581 
L 756 4581 
L 1659 3200 
Q 1909 2813 2125 2425 
Q 2331 2784 2625 3234 
L 3513 4581 
L 4219 4581 
L 2391 1941 
L 2391 0 
L 1784 0 
z
" transform="scale(0.015625)"/>
     </defs>
     <use xlink:href="#ArialMT-54"/>
     <use xlink:href="#ArialMT-6f" x="49.958984"/>
     <use xlink:href="#ArialMT-79" x="105.574219"/>
     <use xlink:href="#ArialMT-6f" x="155.574219"/>
     <use xlink:href="#ArialMT-74" x="211.189453"/>
     <use xlink:href="#ArialMT-61" x="238.972656"/>
     <use xlink:href="#ArialMT-20" x="294.587891"/>
     <use xlink:href="#ArialMT-59" x="320.621094"/>
     <use xlink:href="#ArialMT-61" x="379.945312"/>
     <use xlink:href="#ArialMT-72" x="435.560547"/>
     <use xlink:href="#ArialMT-69" x="468.861328"/>
     <use xlink:href="#ArialMT-73" x="491.078125"/>
    </g>
   </g>
   <g id="text_62">
    <!-- Volkswagen Golf -->
    <g style="fill: #262626" transform="translate(481.574518 427.570983) scale(0.12 -0.12)">
     <defs>
      <path id="ArialMT-47" d="M 2638 1797 
L 2638 2334 
L 4578 2338 
L 4578 638 
Q 4131 281 3656 101 
Q 3181 -78 2681 -78 
Q 2006 -78 1454 211 
Q 903 500 622 1047 
Q 341 1594 341 2269 
Q 341 2938 620 3517 
Q 900 4097 1425 4378 
Q 1950 4659 2634 4659 
Q 3131 4659 3532 4498 
Q 3934 4338 4162 4050 
Q 4391 3763 4509 3300 
L 3963 3150 
Q 3859 3500 3706 3700 
Q 3553 3900 3268 4020 
Q 2984 4141 2638 4141 
Q 2222 4141 1919 4014 
Q 1616 3888 1430 3681 
Q 1244 3475 1141 3228 
Q 966 2803 966 2306 
Q 966 1694 1177 1281 
Q 1388 869 1791 669 
Q 2194 469 2647 469 
Q 3041 469 3416 620 
Q 3791 772 3984 944 
L 3984 1797 
L 2638 1797 
z
" transform="scale(0.015625)"/>
      <path id="ArialMT-66" d="M 556 0 
L 556 2881 
L 59 2881 
L 59 3319 
L 556 3319 
L 556 3672 
Q 556 4006 616 4169 
Q 697 4388 901 4523 
Q 1106 4659 1475 4659 
Q 1713 4659 2000 4603 
L 1916 4113 
Q 1741 4144 1584 4144 
Q 1328 4144 1222 4034 
Q 1116 3925 1116 3625 
L 1116 3319 
L 1763 3319 
L 1763 2881 
L 1116 2881 
L 1116 0 
L 556 0 
z
" transform="scale(0.015625)"/>
     </defs>
     <use xlink:href="#ArialMT-56"/>
     <use xlink:href="#ArialMT-6f" x="61.199219"/>
     <use xlink:href="#ArialMT-6c" x="116.814453"/>
     <use xlink:href="#ArialMT-6b" x="139.03125"/>
     <use xlink:href="#ArialMT-73" x="189.03125"/>
     <use xlink:href="#ArialMT-77" x="239.03125"/>
     <use xlink:href="#ArialMT-61" x="311.248047"/>
     <use xlink:href="#ArialMT-67" x="366.863281"/>
     <use xlink:href="#ArialMT-65" x="422.478516"/>
     <use xlink:href="#ArialMT-6e" x="478.09375"/>
     <use xlink:href="#ArialMT-20" x="533.708984"/>
     <use xlink:href="#ArialMT-47" x="561.492188"/>
     <use xlink:href="#ArialMT-6f" x="639.275391"/>
     <use xlink:href="#ArialMT-6c" x="694.890625"/>
     <use xlink:href="#ArialMT-66" x="717.107422"/>
    </g>
   </g>
   <g id="text_63">
    <!-- Volkswagen Passat -->
    <g style="fill: #262626" transform="translate(491.407423 405.833246) scale(0.12 -0.12)">
     <use xlink:href="#ArialMT-56"/>
     <use xlink:href="#ArialMT-6f" x="61.199219"/>
     <use xlink:href="#ArialMT-6c" x="116.814453"/>
     <use xlink:href="#ArialMT-6b" x="139.03125"/>
     <use xlink:href="#ArialMT-73" x="189.03125"/>
     <use xlink:href="#ArialMT-77" x="239.03125"/>
     <use xlink:href="#ArialMT-61" x="311.248047"/>
     <use xlink:href="#ArialMT-67" x="366.863281"/>
     <use xlink:href="#ArialMT-65" x="422.478516"/>
     <use xlink:href="#ArialMT-6e" x="478.09375"/>
     <use xlink:href="#ArialMT-20" x="533.708984"/>
     <use xlink:href="#ArialMT-50" x="561.492188"/>
     <use xlink:href="#ArialMT-61" x="628.191406"/>
     <use xlink:href="#ArialMT-73" x="683.806641"/>
     <use xlink:href="#ArialMT-73" x="733.806641"/>
     <use xlink:href="#ArialMT-61" x="783.806641"/>
     <use xlink:href="#ArialMT-74" x="839.421875"/>
    </g>
   </g>
   <g id="text_64">
    <!-- Volkswagen Polo -->
    <g style="fill: #262626" transform="translate(457.535061 429.798715) scale(0.12 -0.12)">
     <use xlink:href="#ArialMT-56"/>
     <use xlink:href="#ArialMT-6f" x="61.199219"/>
     <use xlink:href="#ArialMT-6c" x="116.814453"/>
     <use xlink:href="#ArialMT-6b" x="139.03125"/>
     <use xlink:href="#ArialMT-73" x="189.03125"/>
     <use xlink:href="#ArialMT-77" x="239.03125"/>
     <use xlink:href="#ArialMT-61" x="311.248047"/>
     <use xlink:href="#ArialMT-67" x="366.863281"/>
     <use xlink:href="#ArialMT-65" x="422.478516"/>
     <use xlink:href="#ArialMT-6e" x="478.09375"/>
     <use xlink:href="#ArialMT-20" x="533.708984"/>
     <use xlink:href="#ArialMT-50" x="561.492188"/>
     <use xlink:href="#ArialMT-6f" x="628.191406"/>
     <use xlink:href="#ArialMT-6c" x="683.806641"/>
     <use xlink:href="#ArialMT-6f" x="706.023438"/>
    </g>
   </g>
   <g id="text_65">
    <!-- Volkswagen Tiguan -->
    <g style="fill: #262626" transform="translate(586.558908 893.535928) scale(0.12 -0.12)">
     <use xlink:href="#ArialMT-56"/>
     <use xlink:href="#ArialMT-6f" x="61.199219"/>
     <use xlink:href="#ArialMT-6c" x="116.814453"/>
     <use xlink:href="#ArialMT-6b" x="139.03125"/>
     <use xlink:href="#ArialMT-73" x="189.03125"/>
     <use xlink:href="#ArialMT-77" x="239.03125"/>
     <use xlink:href="#ArialMT-61" x="311.248047"/>
     <use xlink:href="#ArialMT-67" x="366.863281"/>
     <use xlink:href="#ArialMT-65" x="422.478516"/>
     <use xlink:href="#ArialMT-6e" x="478.09375"/>
     <use xlink:href="#ArialMT-20" x="533.708984"/>
     <use xlink:href="#ArialMT-54" x="559.742188"/>
     <use xlink:href="#ArialMT-69" x="617.076172"/>
     <use xlink:href="#ArialMT-67" x="639.292969"/>
     <use xlink:href="#ArialMT-75" x="694.908203"/>
     <use xlink:href="#ArialMT-61" x="750.523438"/>
     <use xlink:href="#ArialMT-6e" x="806.138672"/>
    </g>
   </g>
   <g id="text_66">
    <!-- Współczynnik eksploatacji vs współczynnik utraty wartości -->
    <g style="fill: #262626" transform="translate(284.529375 166.8) scale(0.18 -0.18)">
     <use xlink:href="#ArialMT-57"/>
     <use xlink:href="#ArialMT-73" x="94.384766"/>
     <use xlink:href="#ArialMT-70" x="144.384766"/>
     <use xlink:href="#ArialMT-f3" x="200"/>
     <use xlink:href="#ArialMT-142" x="255.615234"/>
     <use xlink:href="#ArialMT-63" x="277.832031"/>
     <use xlink:href="#ArialMT-7a" x="327.832031"/>
     <use xlink:href="#ArialMT-79" x="377.832031"/>
     <use xlink:href="#ArialMT-6e" x="427.832031"/>
     <use xlink:href="#ArialMT-6e" x="483.447266"/>
     <use xlink:href="#ArialMT-69" x="539.0625"/>
     <use xlink:href="#ArialMT-6b" x="561.279297"/>
     <use xlink:href="#ArialMT-20" x="611.279297"/>
     <use xlink:href="#ArialMT-65" x="639.0625"/>
     <use xlink:href="#ArialMT-6b" x="694.677734"/>
     <use xlink:href="#ArialMT-73" x="744.677734"/>
     <use xlink:href="#ArialMT-70" x="794.677734"/>
     <use xlink:href="#ArialMT-6c" x="850.292969"/>
     <use xlink:href="#ArialMT-6f" x="872.509766"/>
     <use xlink:href="#ArialMT-61" x="928.125"/>
     <use xlink:href="#ArialMT-74" x="983.740234"/>
     <use xlink:href="#ArialMT-61" x="1011.523438"/>
     <use xlink:href="#ArialMT-63" x="1067.138672"/>
     <use xlink:href="#ArialMT-6a" x="1117.138672"/>
     <use xlink:href="#ArialMT-69" x="1139.355469"/>
     <use xlink:href="#ArialMT-20" x="1161.572266"/>
     <use xlink:href="#ArialMT-76" x="1189.355469"/>
     <use xlink:href="#ArialMT-73" x="1239.355469"/>
     <use xlink:href="#ArialMT-20" x="1289.355469"/>
     <use xlink:href="#ArialMT-77" x="1317.138672"/>
     <use xlink:href="#ArialMT-73" x="1389.355469"/>
     <use xlink:href="#ArialMT-70" x="1439.355469"/>
     <use xlink:href="#ArialMT-f3" x="1494.970703"/>
     <use xlink:href="#ArialMT-142" x="1550.585938"/>
     <use xlink:href="#ArialMT-63" x="1572.802734"/>
     <use xlink:href="#ArialMT-7a" x="1622.802734"/>
     <use xlink:href="#ArialMT-79" x="1672.802734"/>
     <use xlink:href="#ArialMT-6e" x="1722.802734"/>
     <use xlink:href="#ArialMT-6e" x="1778.417969"/>
     <use xlink:href="#ArialMT-69" x="1834.033203"/>
     <use xlink:href="#ArialMT-6b" x="1856.25"/>
     <use xlink:href="#ArialMT-20" x="1906.25"/>
     <use xlink:href="#ArialMT-75" x="1934.033203"/>
     <use xlink:href="#ArialMT-74" x="1989.648438"/>
     <use xlink:href="#ArialMT-72" x="2017.431641"/>
     <use xlink:href="#ArialMT-61" x="2050.732422"/>
     <use xlink:href="#ArialMT-74" x="2106.347656"/>
     <use xlink:href="#ArialMT-79" x="2134.130859"/>
     <use xlink:href="#ArialMT-20" x="2184.130859"/>
     <use xlink:href="#ArialMT-77" x="2211.914062"/>
     <use xlink:href="#ArialMT-61" x="2284.130859"/>
     <use xlink:href="#ArialMT-72" x="2339.746094"/>
     <use xlink:href="#ArialMT-74" x="2373.046875"/>
     <use xlink:href="#ArialMT-6f" x="2400.830078"/>
     <use xlink:href="#ArialMT-15b" x="2456.445312"/>
     <use xlink:href="#ArialMT-63" x="2506.445312"/>
     <use xlink:href="#ArialMT-69" x="2556.445312"/>
    </g>
   </g>
  </g>
 </g>
 <defs>
  <clipPath id="pa4b176d910">
   <rect x="126" y="172.8" width="781.2" height="1087.2"/>
  </clipPath>
 </defs>
</svg>
